<?xml version="1.0" encoding="UTF-8"?>
<svg width="216px" height="55px" viewBox="0 0 216 55" version="1.1" xmlns="http://www.w3.org/2000/svg" xmlns:xlink="http://www.w3.org/1999/xlink">
    <!-- Generator: Sketch 53.2 (72643) - https://sketchapp.com -->
    <title>logo-footer</title>
    <desc>Created with Sketch.</desc>
    <g id="Page-1" stroke="none" stroke-width="1" fill="none" fill-rule="evenodd">
        <g id="logo-footer" fill="#FFFFFF" fill-rule="nonzero">
            <path d="M81.3,54.84 L81.3,53.84 L82.3,53.84 L82.3,54.84 L81.3,54.84 Z M81.3,52.6 L81.3,51.6 L82.3,51.6 L82.3,52.6 L81.3,52.6 Z M81.3,50.35 L81.3,49.35 L82.3,49.35 L82.3,50.35 L81.3,50.35 Z M81.3,48.1 L81.3,47.1 L82.3,47.1 L82.3,48.1 L81.3,48.1 Z M81.3,45.86 L81.3,44.86 L82.3,44.86 L82.3,45.86 L81.3,45.86 Z M81.3,43.61 L81.3,42.61 L82.3,42.61 L82.3,43.61 L81.3,43.61 Z M81.3,41.37 L81.3,40.37 L82.3,40.37 L82.3,41.37 L81.3,41.37 Z M81.3,39.12 L81.3,38.12 L82.3,38.12 L82.3,39.12 L81.3,39.12 Z M81.3,36.88 L81.3,35.88 L82.3,35.88 L82.3,36.88 L81.3,36.88 Z M81.3,34.63 L81.3,33.63 L82.3,33.63 L82.3,34.63 L81.3,34.63 Z M81.3,32.39 L81.3,31.39 L82.3,31.39 L82.3,32.39 L81.3,32.39 Z M81.3,30.14 L81.3,29.14 L82.3,29.14 L82.3,30.14 L81.3,30.14 Z M81.3,27.89 L81.3,26.89 L82.3,26.89 L82.3,27.89 L81.3,27.89 Z M81.3,25.65 L81.3,24.65 L82.3,24.65 L82.3,25.65 L81.3,25.65 Z M81.3,23.4 L81.3,22.4 L82.3,22.4 L82.3,23.4 L81.3,23.4 Z M81.3,21.16 L81.3,20.16 L82.3,20.16 L82.3,21.16 L81.3,21.16 Z M81.3,18.91 L81.3,17.91 L82.3,17.91 L82.3,18.91 L81.3,18.91 Z M81.3,16.67 L81.3,15.67 L82.3,15.67 L82.3,16.67 L81.3,16.67 Z M81.3,14.42 L81.3,13.42 L82.3,13.42 L82.3,14.42 L81.3,14.42 Z M81.3,12.17 L81.3,11.17 L82.3,11.17 L82.3,12.17 L81.3,12.17 Z M81.3,9.93 L81.3,8.93 L82.3,8.93 L82.3,9.93 L81.3,9.93 Z M81.3,7.68 L81.3,6.68 L82.3,6.68 L82.3,7.68 L81.3,7.68 Z M81.3,5.44 L81.3,4.44 L82.3,4.44 L82.3,5.44 L81.3,5.44 Z M81.3,3.19 L81.3,2.19 L82.3,2.19 L82.3,3.19 L81.3,3.19 Z M81.3,1 L81.3,0 L82.3,0 L82.3,1 L81.3,1 Z" id="Shape"></path>
            <polygon id="Path" points="95 29.77 98.12 46.18 98.57 46.18 101.68 29.77 106.38 29.77 109.49 46.18 110 46.18 113.11 29.77 117.45 29.77 112.84 50.43 106.71 50.43 104.07 35.85 101.47 50.43 95.31 50.43 90.7 29.77"></polygon>
            <polygon id="Path" points="119.25 29.77 132.37 29.77 132.37 33.72 123.37 33.72 123.37 38.33 130.61 38.33 130.61 42.19 123.37 42.19 123.37 46.48 132.37 46.48 132.37 50.48 119.25 50.48"></polygon>
            <path d="M147.45,33.9 C147.45,33.9 143.23,33.42 141.45,33.42 C139.23,33.42 138.19,34.08 138.19,35.42 C138.19,36.76 139,37.19 142.41,38.26 C146.81,39.67 148.15,40.9 148.15,44.49 C148.15,48.71 145.15,50.78 140.91,50.78 C138.794997,50.6606365 136.692208,50.3798189 134.62,49.94 L135.04,46.26 C135.04,46.26 138.76,46.76 140.88,46.76 C143,46.76 144.05,46.17 144.05,44.58 C144.05,43.32 143.34,42.72 140.4,41.89 C135.82,40.57 134.09,39.01 134.09,35.48 C134.09,31.48 136.9,29.4 141.45,29.4 C143.560733,29.5115925 145.660031,29.7823618 147.73,30.21 L147.45,33.9 Z" id="Path"></path>
            <polygon id="Path" points="148.8 29.77 163.8 29.77 163.8 33.77 158.41 33.77 158.41 50.43 154.28 50.43 154.28 33.76 148.8 33.76"></polygon>
            <polygon id="Path" points="165.56 29.77 178.67 29.77 178.67 33.72 169.67 33.72 169.67 38.33 176.92 38.33 176.92 42.19 169.67 42.19 169.67 46.48 178.67 46.48 178.67 50.48 165.56 50.48"></polygon>
            <path d="M189.45,43.75 L185.5,43.75 L185.5,50.43 L181.37,50.43 L181.37,29.77 L189.27,29.77 C194.15,29.77 196.46,31.77 196.46,36.63 C196.46,39.63 195.32,41.36 193.46,42.52 L196.36,50.43 L191.84,50.43 L189.45,43.75 Z M189.27,33.69 L185.5,33.69 L185.5,39.83 L189.33,39.83 C191.4,39.83 192.24,38.54 192.24,36.69 C192.24,34.84 191.25,33.69 189.27,33.69 L189.27,33.69 Z" id="Shape"></path>
            <polygon id="Path" points="198.89 29.77 205.39 29.77 211.1 45.22 211.55 45.22 211.55 29.77 215.68 29.77 215.68 50.43 209.4 50.43 203.47 35 203 35 203 50.43 198.87 50.43"></polygon>
            <polygon id="Path" points="91.85 4.4 94.15 4.4 94.15 25.18 91.85 25.18"></polygon>
            <path d="M98.24,14.91 C98.24,8.05 100.03,4.11 106.42,4.11 C112.81,4.11 114.57,8.02 114.57,14.91 C114.57,22.01 112.81,25.48 106.42,25.48 C100.03,25.48 98.24,21.84 98.24,14.91 Z M112.24,14.91 C112.24,9.42 111.13,6.29 106.45,6.29 C101.77,6.29 100.66,9.39 100.66,14.91 C100.66,20.43 101.66,23.3 106.45,23.3 C111.24,23.3 112.21,20.61 112.21,14.91 L112.24,14.91 Z" id="Shape"></path>
            <polygon id="Path" points="118.39 4.4 122.18 22.88 123 22.88 127 4.59 129.6 4.59 133.72 22.88 134.59 22.88 138.29 4.4 140.64 4.4 136.23 25.18 132.05 25.18 128.36 7.84 124.69 25.18 120.54 25.18 116 4.4"></polygon>
            <path d="M146.09,4.4 L151.09,4.4 L156.67,25.15 L154.4,25.15 L152.87,20 L144.21,20 L142.72,25.22 L140.42,25.22 L146.09,4.4 Z M144.75,17.75 L152.39,17.75 L149.31,6.52 L147.82,6.52 L144.75,17.75 Z" id="Shape"></path>
            <path d="M42.52,25.05 C42.98,22.22 43.71,17.75 44.52,12.71 C44.5982168,12.0937821 45.1516423,11.6510417 45.77,11.71 L46.43,11.71 L47.3,11.71 L48.54,11.71 L50.12,4.44 L25.42,4.44 L23.91,11.73 L25.76,11.67 L26.64,11.67 L26.89,11.67 C27.89,11.67 28.19,12.26 28.1,12.87 L24.75,31.78 C26.66,30.91 28.91,29.78 31.44,28.41 C31.4607817,28.3879792 31.4897214,28.3754983 31.52,28.3754983 C31.5502786,28.3754983 31.5792183,28.3879792 31.6,28.41 C31.6220208,28.4307817 31.6345017,28.4597214 31.6345017,28.49 C31.6345017,28.5202786 31.6220208,28.5492183 31.6,28.57 C23.77,35.04 19.93,35.57 18.94,35.57 L18.47,35.57 C18.4106024,35.5627465 18.3623814,35.518544 18.35,35.46 C18.35,35.39 18.35,35.29 18.35,35.17 C18.48,33.17 18.91,29.75 19.5,26.17 C20.26,21.6 21.15,16.17 21.35,14.74 C21.5643103,13.6765011 21.2848048,12.5731898 20.59,11.74 C19.749483,10.8831905 18.5897554,10.4156753 17.39,10.45 L1.52,10.45 L0,17.7 L1.85,17.63 L3,17.63 C4.08,17.63 4.29,18.31 4.21,18.84 L0.81,38.39 C0.518212277,39.9437631 0.357646163,41.5193181 0.33,43.1 C0.33,47.5 4.07,50.34 9.85,50.34 C13.62,50.34 17.77,48.87 22.17,45.96 C32.3,39.87 40.86,27.52 42.52,25.05 Z M64.52,29.58 C64.52,29.3 66.16,19.34 66.18,19.22 L66.18,19.22 C66.41,18.1 66.99,17.68 68.3,17.64 L69.4,17.64 L70.65,17.69 L72.16,10.39 L55.31,10.39 C53.4896301,10.3289356 51.7921419,11.3055727 50.93,12.91 C50.7302375,13.3260807 50.5856813,13.7664729 50.5,14.22 C50.32,15.22 47.5,32 46.78,36 C50.21,34.23 53.97,31.88 55.92,30.63 C55.9742159,30.6092671 56.0356073,30.6269883 56.0704343,30.6734243 C56.1052613,30.7198603 56.1050841,30.7837579 56.07,30.83 C49,36.93 43.81,40 40.7,40.09 L40.41,40.09 C40.3596994,40.082226 40.3175806,40.0477652 40.3,40 C40.3,39.93 40.3,39.84 40.3,39.71 C40.4,38.15 41.13,33.58 41.85,29.18 C38,34.3 30.64,43.2 22.32,48 C22.54,52.17 26.25,54.86 31.82,54.86 C36.62,54.86 41.96,52.52 47.7,47.86 C55.78,41.71 62.56,32.6 64.51,29.58 L64.52,29.58 Z M69.95,33.24 C68.2382609,34.4928592 66.2350048,35.287966 64.13,35.55 L64,35.55 C63.9391519,35.5460152 63.889251,35.5002726 63.88,35.44 C63.88,35.37 63.88,35.27 63.88,35.16 C63.88,34.54 63.99,33.79 64.08,32.93 C59.8267593,38.8939965 54.8334995,44.2938408 49.22,49 C50.8684137,49.9591655 52.7539125,50.4340062 54.66,50.37 L55.49,50.37 C64.77,49.87 69.09,44.37 71.08,39.85 L72.88,31.33 L69.95,33.24 Z" id="Shape"></path>
        </g>
    </g>
</svg>