<?xml version="1.0" encoding="UTF-8"?>
<svg width="32px" height="128px" viewBox="0 0 32 128" version="1.1" xmlns="http://www.w3.org/2000/svg" xmlns:xlink="http://www.w3.org/1999/xlink">
    <!-- Generator: Sketch 53.2 (72643) - https://sketchapp.com -->
    <title>sprite-social</title>
    <desc>Created with Sketch.</desc>
    <defs>
        <path d="M9,16 L9,8 L12,8 L12,6 L9,6 L9,4 C9.19256506,3.21977598 9.41263941,2.65739668 11,3 L12,3 L12,0 C11.7501859,0.0741599073 10.8877323,0 10,0 C7.79479554,0 6.36728625,1.32869834 6,4 L6,6 L4,6 L4,8 L6,8 L6,16 L9,16 Z" id="path-1"></path>
        <path d="M9,16 L9,8 L12,8 L12,6 L9,6 L9,4 C9.19256506,3.21977598 9.41263941,2.65739668 11,3 L12,3 L12,0 C11.7501859,0.0741599073 10.8877323,0 10,0 C7.79479554,0 6.36728625,1.32869834 6,4 L6,6 L4,6 L4,8 L6,8 L6,16 L9,16 Z" id="path-3"></path>
        <path d="M16,3.42015385 C15.4113528,3.66153846 14.7791948,3.82446154 14.1145286,3.89692308 C14.792198,3.52215385 15.3128282,2.92861538 15.5583896,2.22153846 C14.9237309,2.56815385 14.2215554,2.82107692 13.4738685,2.95630769 C12.8747187,2.36784615 12.0215054,2 11.0767692,2 C9.26381595,2 7.79494874,3.356 7.79494874,5.02907692 C7.79494874,5.26630769 7.82345586,5.498 7.87946987,5.71953846 C5.15128782,5.59307692 2.73268317,4.38707692 1.11327832,2.55430769 C0.831207802,3.002 0.669167292,3.52215385 0.669167292,4.07738462 C0.669167292,5.12876923 1.2488122,6.05553846 2.12903226,6.59923077 C1.59139785,6.58307692 1.08527132,6.44738462 0.642660665,6.22030769 C0.64216054,6.23276923 0.64216054,6.24615385 0.64216054,6.25815385 C0.64216054,7.72630769 1.77344336,8.95076923 3.27531883,9.22907692 C3.00025006,9.29784615 2.71017754,9.33523077 2.41060265,9.33523077 C2.19854964,9.33523077 1.99349837,9.31630769 1.79344836,9.28123077 C2.21055264,10.484 3.42335584,11.36 4.8592148,11.3849231 C3.73643411,12.1972308 2.32108027,12.6823077 0.783195799,12.6823077 C0.518129532,12.6823077 0.256564141,12.668 0,12.6398462 C1.45236309,13.4983077 3.17779445,14 5.03175794,14 C11.0692673,14 14.3715929,9.38415385 14.3715929,5.38076923 C14.3715929,5.24969231 14.3675919,5.11861538 14.3615904,4.98846154 C15.0032508,4.56153846 15.5593898,4.02846154 16,3.42015385 Z" id="path-5"></path>
        <path d="M16,3.42015385 C15.4113528,3.66153846 14.7791948,3.82446154 14.1145286,3.89692308 C14.792198,3.52215385 15.3128282,2.92861538 15.5583896,2.22153846 C14.9237309,2.56815385 14.2215554,2.82107692 13.4738685,2.95630769 C12.8747187,2.36784615 12.0215054,2 11.0767692,2 C9.26381595,2 7.79494874,3.356 7.79494874,5.02907692 C7.79494874,5.26630769 7.82345586,5.498 7.87946987,5.71953846 C5.15128782,5.59307692 2.73268317,4.38707692 1.11327832,2.55430769 C0.831207802,3.002 0.669167292,3.52215385 0.669167292,4.07738462 C0.669167292,5.12876923 1.2488122,6.05553846 2.12903226,6.59923077 C1.59139785,6.58307692 1.08527132,6.44738462 0.642660665,6.22030769 C0.64216054,6.23276923 0.64216054,6.24615385 0.64216054,6.25815385 C0.64216054,7.72630769 1.77344336,8.95076923 3.27531883,9.22907692 C3.00025006,9.29784615 2.71017754,9.33523077 2.41060265,9.33523077 C2.19854964,9.33523077 1.99349837,9.31630769 1.79344836,9.28123077 C2.21055264,10.484 3.42335584,11.36 4.8592148,11.3849231 C3.73643411,12.1972308 2.32108027,12.6823077 0.783195799,12.6823077 C0.518129532,12.6823077 0.256564141,12.668 0,12.6398462 C1.45236309,13.4983077 3.17779445,14 5.03175794,14 C11.0692673,14 14.3715929,9.38415385 14.3715929,5.38076923 C14.3715929,5.24969231 14.3675919,5.11861538 14.3615904,4.98846154 C15.0032508,4.56153846 15.5593898,4.02846154 16,3.42015385 Z" id="path-7"></path>
        <path d="M1.22667695,5.64864865 L4.13030069,5.64864865 L4.13030069,15 L1.22667695,15 L1.22667695,5.64864865 Z M2.68388589,1 C3.61218196,1 4.36777178,1.75675676 4.36777178,2.68648649 C4.36777178,3.61621622 3.61218196,4.37297297 2.68388589,4.37297297 C1.75019275,4.37297297 1,3.61621622 1,2.68648649 C1,1.75675676 1.75019275,1 2.68388589,1 Z M5.95451041,5.64864865 L8.73400154,5.64864865 L8.73400154,6.92972973 L8.77178103,6.92972973 C9.16037008,6.19459459 10.1048574,5.42162162 11.5188897,5.42162162 C14.4548959,5.42162162 15,7.35675676 15,9.87567568 L15,15 L12.1017733,15 L12.1017733,10.4540541 C12.1017733,9.36756757 12.0855821,7.97297297 10.5959907,7.97297297 C9.0848111,7.97297297 8.85813416,9.15675676 8.85813416,10.372973 L8.85813416,15 L5.95990748,15 L5.95990748,5.64864865 L5.95451041,5.64864865 Z" id="path-9"></path>
        <path d="M1.22667695,5.64864865 L4.13030069,5.64864865 L4.13030069,15 L1.22667695,15 L1.22667695,5.64864865 Z M2.68388589,1 C3.61218196,1 4.36777178,1.75675676 4.36777178,2.68648649 C4.36777178,3.61621622 3.61218196,4.37297297 2.68388589,4.37297297 C1.75019275,4.37297297 1,3.61621622 1,2.68648649 C1,1.75675676 1.75019275,1 2.68388589,1 Z M5.95451041,5.64864865 L8.73400154,5.64864865 L8.73400154,6.92972973 L8.77178103,6.92972973 C9.16037008,6.19459459 10.1048574,5.42162162 11.5188897,5.42162162 C14.4548959,5.42162162 15,7.35675676 15,9.87567568 L15,15 L12.1017733,15 L12.1017733,10.4540541 C12.1017733,9.36756757 12.0855821,7.97297297 10.5959907,7.97297297 C9.0848111,7.97297297 8.85813416,9.15675676 8.85813416,10.372973 L8.85813416,15 L5.95990748,15 L5.95990748,5.64864865 L5.95451041,5.64864865 Z" id="path-11"></path>
        <path d="M8.23377863,0 C3.51145038,0 1,2.81036391 1,5.87396939 C1,7.29459291 1.85496183,9.06728399 3.22423664,9.62935677 C3.43129771,9.7158295 3.54484733,9.67876976 3.59160305,9.49964766 C3.63167939,9.36376194 3.8120229,8.70903979 3.89885496,8.4002086 C3.92557252,8.30138261 3.91221374,8.21490988 3.82538168,8.12226052 C3.37118321,7.63430722 3.01049618,6.74487337 3.01049618,5.91102914 C3.01049618,3.77391724 4.84064885,1.69857159 7.95324427,1.69857159 C10.6450382,1.69857159 12.528626,3.32302369 12.528626,5.64543431 C12.528626,8.27049949 11.0324427,10.0864269 9.08874046,10.0864269 C8.01335878,10.0864269 7.21183206,9.3019957 7.46564885,8.33226573 C7.77290076,7.17723705 8.3740458,5.93573563 8.3740458,5.1018914 C8.3740458,4.3545199 7.91984733,3.7368575 6.99141221,3.7368575 C5.89599237,3.7368575 5.00763359,4.74364721 5.00763359,6.09632786 C5.00763359,6.95487859 5.33492366,7.53548124 5.33492366,7.53548124 C5.33492366,7.53548124 4.2528626,11.5996998 4.05248092,12.3594246 C3.71183206,13.6441623 4.09923664,15.7256846 4.13263359,15.9048067 C4.15267176,16.0036327 4.27290076,16.0345158 4.33969466,15.9542197 C4.44656489,15.8245106 5.75572519,14.0888793 6.1230916,12.8350246 C6.25667939,12.3779544 6.80438931,10.5249672 6.80438931,10.5249672 C7.16507634,11.1302764 8.20706107,11.6367596 9.31583969,11.6367596 C12.615458,11.6367596 15,8.94375151 15,5.60219794 C14.9866412,2.3965301 12.0343511,0 8.23377863,0" id="path-13"></path>
        <path d="M8.23377863,0 C3.51145038,0 1,2.81036391 1,5.87396939 C1,7.29459291 1.85496183,9.06728399 3.22423664,9.62935677 C3.43129771,9.7158295 3.54484733,9.67876976 3.59160305,9.49964766 C3.63167939,9.36376194 3.8120229,8.70903979 3.89885496,8.4002086 C3.92557252,8.30138261 3.91221374,8.21490988 3.82538168,8.12226052 C3.37118321,7.63430722 3.01049618,6.74487337 3.01049618,5.91102914 C3.01049618,3.77391724 4.84064885,1.69857159 7.95324427,1.69857159 C10.6450382,1.69857159 12.528626,3.32302369 12.528626,5.64543431 C12.528626,8.27049949 11.0324427,10.0864269 9.08874046,10.0864269 C8.01335878,10.0864269 7.21183206,9.3019957 7.46564885,8.33226573 C7.77290076,7.17723705 8.3740458,5.93573563 8.3740458,5.1018914 C8.3740458,4.3545199 7.91984733,3.7368575 6.99141221,3.7368575 C5.89599237,3.7368575 5.00763359,4.74364721 5.00763359,6.09632786 C5.00763359,6.95487859 5.33492366,7.53548124 5.33492366,7.53548124 C5.33492366,7.53548124 4.2528626,11.5996998 4.05248092,12.3594246 C3.71183206,13.6441623 4.09923664,15.7256846 4.13263359,15.9048067 C4.15267176,16.0036327 4.27290076,16.0345158 4.33969466,15.9542197 C4.44656489,15.8245106 5.75572519,14.0888793 6.1230916,12.8350246 C6.25667939,12.3779544 6.80438931,10.5249672 6.80438931,10.5249672 C7.16507634,11.1302764 8.20706107,11.6367596 9.31583969,11.6367596 C12.615458,11.6367596 15,8.94375151 15,5.60219794 C14.9866412,2.3965301 12.0343511,0 8.23377863,0" id="path-15"></path>
        <path d="M15.84,4.58852801 C15.84,4.58852801 16,5.96943173 16,7.34980228 L16,8.64433287 C16,10.0252366 15.84,11.4056071 15.84,11.4056071 C15.84,11.4056071 15.6835,12.5812414 15.204,13.098947 C14.5955,13.7787355 13.9135,13.7819345 13.601,13.8219221 C11.362,13.9946683 8,14 8,14 C8,14 3.84,13.9594793 2.56,13.8283201 C2.204,13.7574088 1.4045,13.7787355 0.7955,13.098947 C0.316,12.5812414 0.16,11.4056071 0.16,11.4056071 C0.16,11.4056071 0,10.0252366 0,8.64433287 L0,7.34980228 C0,5.96943173 0.16,4.58852801 0.16,4.58852801 C0.16,4.58852801 0.316,3.41289377 0.7955,2.89518816 C1.4045,2.21539965 2.086,2.21220065 2.399,2.17274626 C4.638,2 7.9965,2 7.9965,2 L8.0035,2 C8.0035,2 11.362,2 13.601,2.17274626 C13.9135,2.21220065 14.5955,2.21539965 15.204,2.89518816 C15.6835,3.41289377 15.84,4.58852801 15.84,4.58852801 Z M6.348,10.2129115 L10.6705,7.82432132 L6.3475,5.41920291 L6.348,10.2129115 Z" id="path-17"></path>
        <path d="M15.84,4.58852801 C15.84,4.58852801 16,5.96943173 16,7.34980228 L16,8.64433287 C16,10.0252366 15.84,11.4056071 15.84,11.4056071 C15.84,11.4056071 15.6835,12.5812414 15.204,13.098947 C14.5955,13.7787355 13.9135,13.7819345 13.601,13.8219221 C11.362,13.9946683 8,14 8,14 C8,14 3.84,13.9594793 2.56,13.8283201 C2.204,13.7574088 1.4045,13.7787355 0.7955,13.098947 C0.316,12.5812414 0.16,11.4056071 0.16,11.4056071 C0.16,11.4056071 0,10.0252366 0,8.64433287 L0,7.34980228 C0,5.96943173 0.16,4.58852801 0.16,4.58852801 C0.16,4.58852801 0.316,3.41289377 0.7955,2.89518816 C1.4045,2.21539965 2.086,2.21220065 2.399,2.17274626 C4.638,2 7.9965,2 7.9965,2 L8.0035,2 C8.0035,2 11.362,2 13.601,2.17274626 C13.9135,2.21220065 14.5955,2.21539965 15.204,2.89518816 C15.6835,3.41289377 15.84,4.58852801 15.84,4.58852801 Z M6.348,10.2129115 L10.6705,7.82432132 L6.3475,5.41920291 L6.348,10.2129115 Z" id="path-19"></path>
        <path d="M15.9920113,4.23375168 C15.9223644,5.81128354 14.8348004,7.96887006 12.7293196,10.7065112 C10.5541917,13.5688371 8.71122626,15 7.20578064,15 C6.273583,15 5.48067925,14.1272075 4.83778433,12.3870435 C4.40918771,10.7878273 3.97523363,9.19403225 3.54663701,7.59481611 C3.06982328,5.85465211 2.55550734,4.98185957 2.00368919,4.98185957 C1.88582512,4.98185957 1.46258596,5.23664994 0.750044082,5.74623068 L0,4.76501671 C0.787546286,4.06569846 1.56973511,3.36095915 2.33585157,2.65621983 C3.39127074,1.73463765 4.17881703,1.25216227 4.70920534,1.20337263 C5.95213553,1.08410905 6.71825199,1.94605944 7.0075547,3.78922381 C7.31828725,5.77875711 7.53258556,7.01476144 7.65580709,7.49723682 C8.01475676,9.14524261 8.41120863,9.97466657 8.83980525,9.97466657 C9.17196763,9.97466657 9.67556865,9.43798048 10.3506083,8.37002936 C11.0202905,7.30207824 11.3792402,6.48349642 11.4274573,5.92512604 C11.5238916,5.00354386 11.1649419,4.5373317 10.3506083,4.5373317 C9.96487137,4.5373317 9.57377696,4.62406884 9.16661017,4.80296421 C9.95415645,2.19542874 11.4542446,0.932319043 13.6722321,1.00279297 C15.3116142,1.04074048 16.0884455,2.11953374 15.9920113,4.23375168 Z" id="path-21"></path>
        <path d="M15.9920113,4.23375168 C15.9223644,5.81128354 14.8348004,7.96887006 12.7293196,10.7065112 C10.5541917,13.5688371 8.71122626,15 7.20578064,15 C6.273583,15 5.48067925,14.1272075 4.83778433,12.3870435 C4.40918771,10.7878273 3.97523363,9.19403225 3.54663701,7.59481611 C3.06982328,5.85465211 2.55550734,4.98185957 2.00368919,4.98185957 C1.88582512,4.98185957 1.46258596,5.23664994 0.750044082,5.74623068 L0,4.76501671 C0.787546286,4.06569846 1.56973511,3.36095915 2.33585157,2.65621983 C3.39127074,1.73463765 4.17881703,1.25216227 4.70920534,1.20337263 C5.95213553,1.08410905 6.71825199,1.94605944 7.0075547,3.78922381 C7.31828725,5.77875711 7.53258556,7.01476144 7.65580709,7.49723682 C8.01475676,9.14524261 8.41120863,9.97466657 8.83980525,9.97466657 C9.17196763,9.97466657 9.67556865,9.43798048 10.3506083,8.37002936 C11.0202905,7.30207824 11.3792402,6.48349642 11.4274573,5.92512604 C11.5238916,5.00354386 11.1649419,4.5373317 10.3506083,4.5373317 C9.96487137,4.5373317 9.57377696,4.62406884 9.16661017,4.80296421 C9.95415645,2.19542874 11.4542446,0.932319043 13.6722321,1.00279297 C15.3116142,1.04074048 16.0884455,2.11953374 15.9920113,4.23375168 Z" id="path-23"></path>
        <path d="M15,11.3333333 C15,12.1924429 14.3035541,12.8888889 13.4444444,12.8888889 L4.11111111,12.8888889 L1,16 L1,3.55555556 C1,2.69644594 1.69644594,2 2.55555556,2 L13.4444444,2 C14.3035541,2 15,2.69644594 15,3.55555556 L15,11.3333333 Z" id="path-25"></path>
        <path d="M15,11.3333333 C15,12.1924429 14.3035541,12.8888889 13.4444444,12.8888889 L4.11111111,12.8888889 L1,16 L1,3.55555556 C1,2.69644594 1.69644594,2 2.55555556,2 L13.4444444,2 C14.3035541,2 15,2.69644594 15,3.55555556 L15,11.3333333 Z" id="path-27"></path>
        <path d="M15.5795981,2.75734158 C15.7774343,3.26429675 15.9134467,3.84544049 15.950541,4.69860896 C15.9938176,5.55177743 16,5.82380216 16,8 C16,10.1761978 15.9876352,10.4482226 15.950541,11.301391 C15.9134467,12.1483771 15.7774343,12.7357032 15.5795981,13.2426584 C15.3755796,13.7681607 15.1035549,14.2132921 14.6584235,14.6584235 C14.2132921,15.1035549 13.7681607,15.3755796 13.2426584,15.5795981 C12.7357032,15.7774343 12.1545595,15.9134467 11.301391,15.950541 C10.4482226,15.9938176 10.1761978,16 8,16 C5.82380216,16 5.55177743,15.9876352 4.69860896,15.950541 C3.85162287,15.9134467 3.26429675,15.7774343 2.75734158,15.5795981 C2.23183926,15.3755796 1.78670788,15.1035549 1.34157651,14.6584235 C0.896445131,14.2132921 0.624420402,13.7681607 0.420401855,13.2426584 C0.222565688,12.7357032 0.086553323,12.1545595 0.0494590417,11.301391 C0.00618238022,10.4482226 0,10.1761978 0,8 C0,5.82380216 0.0123647604,5.55177743 0.0494590417,4.69860896 C0.086553323,3.85162287 0.222565688,3.26429675 0.420401855,2.75734158 C0.624420402,2.23183926 0.896445131,1.78670788 1.34157651,1.34157651 C1.78670788,0.896445131 2.23183926,0.624420402 2.75734158,0.420401855 C3.26429675,0.222565688 3.84544049,0.086553323 4.69860896,0.0494590417 C5.55177743,0.00618238022 5.82380216,0 8,0 C10.1761978,0 10.4482226,0.0123647604 11.301391,0.0494590417 C12.1483771,0.086553323 12.7357032,0.222565688 13.2426584,0.420401855 C13.7681607,0.624420402 14.2132921,0.896445131 14.6584235,1.34157651 C15.1035549,1.78670788 15.3755796,2.23183926 15.5795981,2.75734158 Z M13.9548023,10.9548023 C13.9887006,10.1864407 14,9.94915254 14,8 C14,6.05084746 13.9887006,5.81920904 13.9548023,5.04519774 C13.920904,4.33333333 13.8022599,3.94915254 13.700565,3.68926554 C13.5649718,3.34463277 13.4067797,3.10169492 13.1525424,2.84745763 C12.8983051,2.59322034 12.6497175,2.42937853 12.3107345,2.29943503 C12.0564972,2.19774011 11.6666667,2.07909605 10.9548023,2.04519774 C10.1864407,2.00564972 9.94915254,2 8,2 C6.05084746,2 5.81920904,2.01129944 5.04519774,2.04519774 C4.33333333,2.07909605 3.94915254,2.19774011 3.68926554,2.29943503 C3.34463277,2.43502825 3.10169492,2.59322034 2.84745763,2.84745763 C2.59322034,3.10169492 2.42937853,3.35028249 2.29943503,3.68926554 C2.19774011,3.94350282 2.07909605,4.33333333 2.04519774,5.04519774 C2.00564972,5.81355932 2,6.05084746 2,8 C2,9.94915254 2.01129944,10.180791 2.04519774,10.9548023 C2.07909605,11.6666667 2.19774011,12.0508475 2.29943503,12.3107345 C2.43502825,12.6553672 2.59322034,12.8983051 2.84745763,13.1525424 C3.10169492,13.4067797 3.35028249,13.5706215 3.68926554,13.700565 C3.94350282,13.8022599 4.33333333,13.920904 5.04519774,13.9548023 C5.81355932,13.9943503 6.04519774,14 8,14 C9.95480226,14 10.180791,13.9887006 10.9548023,13.9548023 C11.6666667,13.920904 12.0508475,13.8022599 12.3107345,13.700565 C12.6553672,13.5649718 12.8983051,13.4067797 13.1525424,13.1525424 C13.4067797,12.8983051 13.5706215,12.6497175 13.700565,12.3107345 C13.8022599,12.0564972 13.920904,11.6666667 13.9548023,10.9548023 Z M12,5 C11.4477153,5 11,4.55228475 11,4 C11,3.44771525 11.4477153,3 12,3 C12.5522847,3 13,3.44771525 13,4 C13,4.55228475 12.5522847,5 12,5 Z M8,4 C10.2075188,4 12,5.7924812 12,8 C12,10.2075188 10.2075188,12 8,12 C5.7924812,12 4,10.2075188 4,8 C4,5.7924812 5.7924812,4 8,4 Z M8,10 C9.10185185,10 10,9.10185185 10,8 C10,6.89351852 9.10648148,6 8,6 C6.89351852,6 6,6.89814815 6,8 C6,9.10648148 6.89814815,10 8,10 Z" id="path-29"></path>
        <path d="M15.5795981,2.75734158 C15.7774343,3.26429675 15.9134467,3.84544049 15.950541,4.69860896 C15.9938176,5.55177743 16,5.82380216 16,8 C16,10.1761978 15.9876352,10.4482226 15.950541,11.301391 C15.9134467,12.1483771 15.7774343,12.7357032 15.5795981,13.2426584 C15.3755796,13.7681607 15.1035549,14.2132921 14.6584235,14.6584235 C14.2132921,15.1035549 13.7681607,15.3755796 13.2426584,15.5795981 C12.7357032,15.7774343 12.1545595,15.9134467 11.301391,15.950541 C10.4482226,15.9938176 10.1761978,16 8,16 C5.82380216,16 5.55177743,15.9876352 4.69860896,15.950541 C3.85162287,15.9134467 3.26429675,15.7774343 2.75734158,15.5795981 C2.23183926,15.3755796 1.78670788,15.1035549 1.34157651,14.6584235 C0.896445131,14.2132921 0.624420402,13.7681607 0.420401855,13.2426584 C0.222565688,12.7357032 0.086553323,12.1545595 0.0494590417,11.301391 C0.00618238022,10.4482226 0,10.1761978 0,8 C0,5.82380216 0.0123647604,5.55177743 0.0494590417,4.69860896 C0.086553323,3.85162287 0.222565688,3.26429675 0.420401855,2.75734158 C0.624420402,2.23183926 0.896445131,1.78670788 1.34157651,1.34157651 C1.78670788,0.896445131 2.23183926,0.624420402 2.75734158,0.420401855 C3.26429675,0.222565688 3.84544049,0.086553323 4.69860896,0.0494590417 C5.55177743,0.00618238022 5.82380216,0 8,0 C10.1761978,0 10.4482226,0.0123647604 11.301391,0.0494590417 C12.1483771,0.086553323 12.7357032,0.222565688 13.2426584,0.420401855 C13.7681607,0.624420402 14.2132921,0.896445131 14.6584235,1.34157651 C15.1035549,1.78670788 15.3755796,2.23183926 15.5795981,2.75734158 Z M13.9548023,10.9548023 C13.9887006,10.1864407 14,9.94915254 14,8 C14,6.05084746 13.9887006,5.81920904 13.9548023,5.04519774 C13.920904,4.33333333 13.8022599,3.94915254 13.700565,3.68926554 C13.5649718,3.34463277 13.4067797,3.10169492 13.1525424,2.84745763 C12.8983051,2.59322034 12.6497175,2.42937853 12.3107345,2.29943503 C12.0564972,2.19774011 11.6666667,2.07909605 10.9548023,2.04519774 C10.1864407,2.00564972 9.94915254,2 8,2 C6.05084746,2 5.81920904,2.01129944 5.04519774,2.04519774 C4.33333333,2.07909605 3.94915254,2.19774011 3.68926554,2.29943503 C3.34463277,2.43502825 3.10169492,2.59322034 2.84745763,2.84745763 C2.59322034,3.10169492 2.42937853,3.35028249 2.29943503,3.68926554 C2.19774011,3.94350282 2.07909605,4.33333333 2.04519774,5.04519774 C2.00564972,5.81355932 2,6.05084746 2,8 C2,9.94915254 2.01129944,10.180791 2.04519774,10.9548023 C2.07909605,11.6666667 2.19774011,12.0508475 2.29943503,12.3107345 C2.43502825,12.6553672 2.59322034,12.8983051 2.84745763,13.1525424 C3.10169492,13.4067797 3.35028249,13.5706215 3.68926554,13.700565 C3.94350282,13.8022599 4.33333333,13.920904 5.04519774,13.9548023 C5.81355932,13.9943503 6.04519774,14 8,14 C9.95480226,14 10.180791,13.9887006 10.9548023,13.9548023 C11.6666667,13.920904 12.0508475,13.8022599 12.3107345,13.700565 C12.6553672,13.5649718 12.8983051,13.4067797 13.1525424,13.1525424 C13.4067797,12.8983051 13.5706215,12.6497175 13.700565,12.3107345 C13.8022599,12.0564972 13.920904,11.6666667 13.9548023,10.9548023 Z M12,5 C11.4477153,5 11,4.55228475 11,4 C11,3.44771525 11.4477153,3 12,3 C12.5522847,3 13,3.44771525 13,4 C13,4.55228475 12.5522847,5 12,5 Z M8,4 C10.2075188,4 12,5.7924812 12,8 C12,10.2075188 10.2075188,12 8,12 C5.7924812,12 4,10.2075188 4,8 C4,5.7924812 5.7924812,4 8,4 Z M8,10 C9.10185185,10 10,9.10185185 10,8 C10,6.89351852 9.10648148,6 8,6 C6.89351852,6 6,6.89814815 6,8 C6,9.10648148 6.89814815,10 8,10 Z" id="path-31"></path>
    </defs>
    <g id="sprite-social" stroke="none" stroke-width="1" fill="none" fill-rule="evenodd">
        <g id="Icon/Social/Facebook" transform="translate(0.000000, 16.000000)">
            <mask id="mask-2" fill="white">
                <use xlink:href="#path-1"></use>
            </mask>
            <g id="Facebook"></g>
            <g id="UI/Color/Flat/Grey-50%" mask="url(#mask-2)" fill="#0065BD" fill-rule="evenodd">
                <rect id="Base" x="0" y="0" width="16" height="16"></rect>
            </g>
        </g>
        <g id="Icon/Social/Facebook" transform="translate(16.000000, 16.000000)">
            <mask id="mask-4" fill="white">
                <use xlink:href="#path-3"></use>
            </mask>
            <g id="Facebook"></g>
            <g id="UI/Color/Flat/White-(Default)" mask="url(#mask-4)" fill="#7D9AAA" fill-rule="evenodd">
                <rect id="Base" x="0" y="0" width="16" height="16"></rect>
            </g>
        </g>
        <g id="Icon/Social/Twitter" transform="translate(0.000000, 32.000000)">
            <mask id="mask-6" fill="white">
                <use xlink:href="#path-5"></use>
            </mask>
            <g id="Twitter"></g>
            <g id="UI/Color/Flat/Grey-50%" mask="url(#mask-6)" fill="#0065BD" fill-rule="evenodd">
                <rect id="Base" x="0" y="0" width="16" height="16"></rect>
            </g>
        </g>
        <g id="Icon/Social/Twitter" transform="translate(16.000000, 32.000000)">
            <mask id="mask-8" fill="white">
                <use xlink:href="#path-7"></use>
            </mask>
            <g id="Twitter"></g>
            <g id="UI/Color/Flat/White-(Default)" mask="url(#mask-8)" fill="#7D9AAA" fill-rule="evenodd">
                <rect id="Base" x="0" y="0" width="16" height="16"></rect>
            </g>
        </g>
        <g id="Icon/Social/Linkedin" transform="translate(0.000000, 48.000000)">
            <mask id="mask-10" fill="white">
                <use xlink:href="#path-9"></use>
            </mask>
            <g id="Linkedin"></g>
            <g id="UI/Color/Flat/Grey-50%" mask="url(#mask-10)" fill="#0065BD" fill-rule="evenodd">
                <rect id="Base" x="0" y="0" width="16" height="16"></rect>
            </g>
        </g>
        <g id="Icon/Social/Linkedin" transform="translate(16.000000, 48.000000)">
            <mask id="mask-12" fill="white">
                <use xlink:href="#path-11"></use>
            </mask>
            <g id="Linkedin"></g>
            <g id="UI/Color/Flat/White-(Default)" mask="url(#mask-12)" fill="#7D9AAA" fill-rule="evenodd">
                <rect id="Base" x="0" y="0" width="16" height="16"></rect>
            </g>
        </g>
        <g id="Icon/Social/Pinterest" transform="translate(0.000000, 80.000000)">
            <mask id="mask-14" fill="white">
                <use xlink:href="#path-13"></use>
            </mask>
            <g id="Pinterest"></g>
            <g id="UI/Color/Flat/Grey-50%" mask="url(#mask-14)" fill="#0065BD" fill-rule="evenodd">
                <rect id="Base" x="0" y="0" width="16" height="16"></rect>
            </g>
        </g>
        <g id="Icon/Social/Pinterest" transform="translate(16.000000, 80.000000)">
            <mask id="mask-16" fill="white">
                <use xlink:href="#path-15"></use>
            </mask>
            <g id="Pinterest"></g>
            <g id="UI/Color/Flat/White-(Default)" mask="url(#mask-16)" fill="#7D9AAA" fill-rule="evenodd">
                <rect id="Base" x="0" y="0" width="16" height="16"></rect>
            </g>
        </g>
        <g id="Icon/Social/You-Tube" transform="translate(0.000000, 64.000000)">
            <mask id="mask-18" fill="white">
                <use xlink:href="#path-17"></use>
            </mask>
            <g id="Mask"></g>
            <g id="UI/Color/Flat/Grey-50%" mask="url(#mask-18)" fill="#0065BD" fill-rule="evenodd">
                <g transform="translate(-2.285714, -1.600000)" id="Base">
                    <rect x="0" y="0" width="20.7113" height="21.7113"></rect>
                </g>
            </g>
        </g>
        <g id="Icon/Social/You-Tube" transform="translate(16.000000, 64.000000)">
            <mask id="mask-20" fill="white">
                <use xlink:href="#path-19"></use>
            </mask>
            <g id="Mask"></g>
            <g id="UI/Color/Flat/White-(Default)" mask="url(#mask-20)" fill="#7D9AAA" fill-rule="evenodd">
                <g transform="translate(-2.285714, -1.600000)" id="Base">
                    <rect x="0" y="0" width="20.7113" height="21.7113"></rect>
                </g>
            </g>
        </g>
        <g id="Icon/Social/Vimeo" transform="translate(0.000000, 96.000000)">
            <mask id="mask-22" fill="white">
                <use xlink:href="#path-21"></use>
            </mask>
            <g id="Vimeo"></g>
            <g id="UI/Color/Flat/Grey-50%" mask="url(#mask-22)" fill="#0065BD" fill-rule="evenodd">
                <rect id="Base" x="0" y="0" width="16" height="16"></rect>
            </g>
        </g>
        <g id="Icon/Social/Vimeo" transform="translate(16.000000, 96.000000)">
            <mask id="mask-24" fill="white">
                <use xlink:href="#path-23"></use>
            </mask>
            <g id="Vimeo"></g>
            <g id="UI/Color/Flat/White-(Default)" mask="url(#mask-24)" fill="#7D9AAA" fill-rule="evenodd">
                <rect id="Base" x="0" y="0" width="16" height="16"></rect>
            </g>
        </g>
        <g id="Icon/Social/Blog" transform="translate(0.000000, 112.000000)">
            <mask id="mask-26" fill="white">
                <use xlink:href="#path-25"></use>
            </mask>
            <g id="Mask"></g>
            <g id="UI/Color/Flat/Grey-50%" mask="url(#mask-26)" fill="#0065BD" fill-rule="evenodd">
                <g transform="translate(-1.000000, 0.000000)" id="Base">
                    <rect x="0" y="0" width="18" height="18"></rect>
                </g>
            </g>
        </g>
        <g id="Icon/Social/Blog" transform="translate(16.000000, 112.000000)">
            <mask id="mask-28" fill="white">
                <use xlink:href="#path-27"></use>
            </mask>
            <g id="Mask"></g>
            <g id="UI/Color/Flat/White-(Default)" mask="url(#mask-28)" fill="#7D9AAA" fill-rule="evenodd">
                <g transform="translate(-1.000000, 0.000000)" id="Base">
                    <rect x="0" y="0" width="18" height="18"></rect>
                </g>
            </g>
        </g>
        <g id="Icon/Social/Instagram">
            <mask id="mask-30" fill="white">
                <use xlink:href="#path-29"></use>
            </mask>
            <g id="Instagram"></g>
            <g id="UI/Color/Flat/Grey-50%" mask="url(#mask-30)" fill="#0065BD" fill-rule="evenodd">
                <rect id="Base" x="0" y="0" width="16" height="16"></rect>
            </g>
        </g>
        <g id="Icon/Social/Instagram" transform="translate(16.000000, 0.000000)">
            <mask id="mask-32" fill="white">
                <use xlink:href="#path-31"></use>
            </mask>
            <g id="Instagram"></g>
            <g id="UI/Color/Flat/White-(Default)" mask="url(#mask-32)" fill="#7D9AAA" fill-rule="evenodd">
                <rect id="Base" x="0" y="0" width="16" height="16"></rect>
            </g>
        </g>
    </g>
</svg>