<?xml version="1.0" encoding="UTF-8"?>
<svg width="30px" height="390px" viewBox="0 0 30 390" version="1.1" xmlns="http://www.w3.org/2000/svg" xmlns:xlink="http://www.w3.org/1999/xlink">
    <!-- Generator: Sketch 53.2 (72643) - https://sketchapp.com -->
    <title>sprite-programs</title>
    <desc>Created with Sketch.</desc>
    <defs>
        <polygon id="path-1" points="30 0 30 30 0 30"></polygon>
        <path d="M8.51269565,11.5303041 C9.21495652,10.103543 10.5892174,9.40344207 11.9206957,8.72565089 C12.0813913,8.64384851 12.2765217,8.71077773 12.357913,8.8743825 C12.4393043,9.03904964 12.3714783,9.23877494 12.2118261,9.32057732 C10.9210435,9.9781835 9.70017391,10.5996691 9.09704348,11.8267049 C9.0386087,11.9435655 8.92486957,12.0104947 8.80382609,12.0104947 C8.75478261,12.0104947 8.70678261,11.9988086 8.65878261,11.9754365 C8.49704348,11.8946965 8.43234783,11.6949712 8.51269565,11.5303041 M14.6733913,14.3360196 C14.8528696,14.3360196 15,14.4847512 15,14.6674786 C15,14.850206 14.8528696,15 14.6733913,15 L0.325565217,15 C0.146086957,15 0,14.850206 0,14.6674786 C0,14.4847512 0.146086957,14.3360196 0.325565217,14.3360196 L6.84730435,14.3360196 L6.84417391,13.8218332 C6.84,13.4744387 6.83791304,13.1111086 6.84834783,12.7456538 L6.84834783,9.61485343 C6.81495652,9.54155 6.77217391,9.46612182 6.73043478,9.39069365 C6.67930435,9.4873692 6.61565217,9.57767053 6.55408696,9.6499116 C6.552,9.65097396 6.552,9.65416107 6.55095652,9.65522344 C6.54782609,9.66053528 6.54365217,9.66266002 6.54052174,9.66690949 C6.49147826,9.72640214 6.44556522,9.77633346 6.41217391,9.812454 L6.39965217,9.81032926 C5.80382609,10.4498752 5.15895652,10.7877084 4.47443478,10.7877084 C4.39617391,10.7877084 4.31686957,10.7845213 4.23652174,10.77496 C2.45634783,10.5826713 1.05286957,8.30707765 0.533217391,7.33819746 C0.460173913,7.20327665 0.488347826,7.03436004 0.6,6.93237265 C0.712695652,6.82826052 0.880695652,6.81763684 1.00486957,6.90581343 C1.68,7.38281695 2.57634783,7.34988352 4.36069565,7.28189193 C5.44173913,7.24258429 6.2786087,7.75995781 6.84730435,8.41756399 L6.84730435,7.0322353 C6.84730435,6.8495079 6.9933913,6.69971392 7.17391304,6.69971392 C7.3533913,6.69971392 7.49947826,6.8495079 7.49947826,7.0322353 L7.49947826,9.47887025 C7.54434783,9.59041895 7.57982609,9.69771818 7.61113043,9.80289268 C8.01704348,9.21434046 8.62747826,8.72246378 9.5666087,8.41543925 C12.2702609,7.52942382 13.6215652,7.08429136 14.402087,5.96349246 C14.4907826,5.83707059 14.64,5.79032637 14.7798261,5.84769428 C14.9196522,5.90506219 14.9801739,6.05379379 14.9572174,6.20571251 C14.8685217,6.78789052 13.9784348,11.939316 11.4031304,13.3012726 C10.6257391,13.7113469 10.1081739,13.734719 8.80382609,13.3767007 L8.43965217,13.2470918 C8.07547826,13.1142957 7.49947826,12.9464414 7.49947826,13.876014 L7.49947826,14.3360196 L14.6733913,14.3360196 Z M6.51391304,2.32796078 C6.3333913,2.32796078 6.18834783,2.17816681 6.18834783,1.99650177 C6.18834783,1.44725719 6.6266087,1 7.16608696,1 C7.70556522,1 8.14382609,1.44725719 8.14382609,1.99650177 C8.14382609,2.17816681 7.99773913,2.32796078 7.81826087,2.32796078 C7.63773913,2.32796078 7.49165217,2.17816681 7.49165217,1.99650177 C7.49165217,1.81377437 7.34556522,1.66398039 7.16608696,1.66398039 C6.98556522,1.66398039 6.83947826,1.81377437 6.83947826,1.99650177 C6.83947826,2.17816681 6.6933913,2.32796078 6.51391304,2.32796078 Z M4.41422609,4.20994681 C4.18674783,4.07927546 4.02292174,3.864677 3.95405217,3.60864616 C3.88518261,3.35155296 3.91753043,3.08277369 4.04587826,2.85117733 C4.31196522,2.37311145 4.90987826,2.20525721 5.3784,2.47509884 C5.53596522,2.56646254 5.59022609,2.77043732 5.50153043,2.92766787 C5.41387826,3.08808554 5.21457391,3.14545344 5.05805217,3.05408974 C4.90048696,2.96272604 4.70118261,3.02009394 4.61353043,3.17838687 C4.56970435,3.25487741 4.55926957,3.34517874 4.58326957,3.43016823 C4.60518261,3.51622009 4.66048696,3.58739879 4.73561739,3.6309559 C4.89318261,3.72231961 4.94744348,3.92416965 4.85874783,4.08352494 C4.79926957,4.19082417 4.68866087,4.25244155 4.57492174,4.25244155 C4.52066087,4.25244155 4.46535652,4.23863076 4.41422609,4.20994681 Z M4.89161739,6.94416494 C4.54831304,6.94416494 4.2144,6.76143754 4.03492174,6.43529037 C3.90657391,6.20263164 3.87735652,5.93172764 3.94831304,5.67782154 C4.01926957,5.4217907 4.18413913,5.20931697 4.41266087,5.079708 C4.56918261,4.99046904 4.76744348,5.04677457 4.85613913,5.20612987 C4.9437913,5.3676099 4.88744348,5.56945994 4.72987826,5.65976127 C4.65370435,5.70438075 4.59944348,5.77343471 4.57544348,5.8584242 C4.55144348,5.94447606 4.56187826,6.03371503 4.60466087,6.11020557 C4.69231304,6.27062323 4.89057391,6.32692877 5.04918261,6.23981454 C5.20674783,6.14845084 5.40396522,6.20688111 5.49266087,6.36836114 C5.58031304,6.52877881 5.52396522,6.72956648 5.3664,6.81880544 C5.21613913,6.90273256 5.05231304,6.94416494 4.89161739,6.94416494 Z M9.94852174,4.78160736 C10.1885217,4.88678186 10.3753043,5.08013295 10.4754783,5.32660247 C10.5725217,5.57307199 10.5693913,5.84397599 10.466087,6.08725841 C10.3627826,6.33266556 10.173913,6.52389191 9.92973913,6.62162983 C9.81182609,6.66837404 9.68973913,6.69280852 9.56765217,6.69280852 C9.43617391,6.69280852 9.30469565,6.66518694 9.18156522,6.61206851 C9.0146087,6.53876507 8.93843478,6.34435161 9.01043478,6.175435 C9.0813913,6.00758076 9.2733913,5.93002785 9.43930435,6.00120655 C9.5186087,6.03732708 9.60626087,6.03732708 9.68765217,6.00439365 C9.768,5.97252259 9.8306087,5.90771811 9.86608696,5.82591572 C9.89947826,5.74517571 9.90156522,5.65487437 9.86817391,5.57200962 C9.83582609,5.49020724 9.77426087,5.42752749 9.69391304,5.39246932 C9.528,5.32022826 9.45078261,5.1258148 9.52173913,4.95689819 C9.59165217,4.78691921 9.78469565,4.71042867 9.94852174,4.78160736 Z M9.09756522,2.83683536 C8.95147826,2.94413459 8.74695652,2.90907642 8.6426087,2.75928245 C8.53826087,2.61161321 8.5706087,2.40338896 8.71878261,2.29715209 C8.9306087,2.14098391 9.1893913,2.08042889 9.44713043,2.12398601 C9.70486957,2.16648075 9.93234783,2.30883815 10.0826087,2.52662372 C10.3966957,2.97281854 10.2944348,3.59749129 9.85721739,3.91620188 C9.79878261,3.95869663 9.732,3.97781926 9.66730435,3.97781926 C9.56504348,3.97781926 9.46591304,3.93107504 9.40121739,3.83971134 C9.29686957,3.69097973 9.33026087,3.48275548 9.47634783,3.37758099 C9.62243478,3.27134412 9.65791304,3.06311987 9.55356522,2.9133259 C9.50243478,2.8421472 9.42626087,2.79327824 9.34069565,2.77946745 C9.25408696,2.76459429 9.16747826,2.78584166 9.09756522,2.83683536 Z M8.71450435,4.65189215 C8.71450435,5.52303443 8.02163478,6.2284472 7.16598261,6.2284472 C6.31033043,6.2284472 5.61746087,5.52303443 5.61746087,4.65189215 C5.61746087,3.78074988 6.31033043,3.07533711 7.16598261,3.07533711 C8.02163478,3.07533711 8.71450435,3.78074988 8.71450435,4.65189215 Z" id="path-3"></path>
        <polygon id="path-5" points="30 0 30 30 0 30"></polygon>
        <path d="M2.19665828,3.19731885 C1.9203335,2.92099406 1.9203335,2.47298307 2.19665828,2.19665828 C2.47298307,1.9203335 2.92099406,1.9203335 3.19731885,2.19665828 L4.6987906,3.69813004 C4.97511539,3.97445482 4.97511539,4.42246582 4.6987906,4.6987906 C4.42246582,4.97511539 3.97445482,4.97511539 3.69813004,4.6987906 L2.19665828,3.19731885 Z M8.20757387,2.83029548 C8.20757387,3.22107774 7.89078226,3.53786935 7.5,3.53786935 C7.10921774,3.53786935 6.79242613,3.22107774 6.79242613,2.83029548 L6.79242613,0.707573871 C6.79242613,0.316791613 7.10921774,0 7.5,0 C7.89078226,0 8.20757387,0.316791613 8.20757387,0.707573871 L8.20757387,2.83029548 Z M10.3012094,11.30187 C10.0248846,11.0255452 10.0248846,10.5775342 10.3012094,10.3012094 C10.5775342,10.0248846 11.0255452,10.0248846 11.30187,10.3012094 L12.8047569,11.8040963 C13.0810816,12.0804211 13.0810816,12.5284321 12.8047569,12.8047569 C12.5284321,13.0810816 12.0804211,13.0810816 11.8040963,12.8047569 L10.3012094,11.30187 Z M3.19755446,12.8038136 C2.92135987,13.0802685 2.47334892,13.0804795 2.19689401,12.8042849 C1.9204391,12.5280903 1.92022807,12.0800794 2.19642267,11.8036245 L3.69789442,10.3007376 C3.97408902,10.0242826 4.42209996,10.0240716 4.69855487,10.3002662 C4.97500979,10.5764608 4.97522081,11.0244718 4.69902622,11.3009267 L3.19755446,12.8038136 Z M11.3016342,4.69831864 C11.0251793,4.97451324 10.5771684,4.97430221 10.3009738,4.6978473 C10.0247792,4.42139239 10.0249902,3.97338144 10.3014451,3.69718685 L11.804332,2.19571509 C12.0807869,1.9195205 12.5287979,1.91973152 12.8049925,2.19618644 C13.0811871,2.47264135 13.080976,2.92065229 12.8045211,3.19684689 L11.3016342,4.69831864 Z M0.707573871,8.20757387 C0.316791613,8.20757387 0,7.89078226 0,7.5 C0,7.10921774 0.316791613,6.79242613 0.707573871,6.79242613 L2.83029548,6.79242613 C3.22107774,6.79242613 3.53786935,7.10921774 3.53786935,7.5 C3.53786935,7.89078226 3.22107774,8.20757387 2.83029548,8.20757387 L0.707573871,8.20757387 Z M12.1697045,8.20757387 C11.7789223,8.20757387 11.4621306,7.89078226 11.4621306,7.5 C11.4621306,7.10921774 11.7789223,6.79242613 12.1697045,6.79242613 L14.2924261,6.79242613 C14.6832084,6.79242613 15,7.10921774 15,7.5 C15,7.89078226 14.6832084,8.20757387 14.2924261,8.20757387 L12.1697045,8.20757387 Z M8.20757387,14.2924261 C8.20757387,14.6832084 7.89078226,15 7.5,15 C7.10921774,15 6.79242613,14.6832084 6.79242613,14.2924261 L6.79242613,12.1697045 C6.79242613,11.7789223 7.10921774,11.4621306 7.5,11.4621306 C7.89078226,11.4621306 8.20757387,11.7789223 8.20757387,12.1697045 L8.20757387,14.2924261 Z M7.5,4.10378694 C9.37507076,4.10378694 10.8963546,5.62365561 10.8963546,7.50014151 C10.8963546,9.37521227 9.37507076,10.8964961 7.5,10.8964961 C5.62351409,10.8964961 4.10364542,9.37521227 4.10364542,7.50014151 C4.10364542,5.62365561 5.62351409,4.10378694 7.5,4.10378694 Z" id="path-7"></path>
        <polygon id="path-9" points="30 0 30 30 0 30"></polygon>
        <path d="M11.0547,9.5165 C9.1927,11.8245 6.3097,13.1935 2.4977,13.6205 L5.1307,10.7165 L9.0517,9.6435 C9.2517,9.5885 9.3687,9.3825 9.3147,9.1835 C9.2607,8.9845 9.0567,8.8605 8.8547,8.9205 L6.2077,9.6455 L6.2277,9.5065 L9.3327,6.0805 C9.4727,5.9275 9.4607,5.6905 9.3077,5.5515 C9.1547,5.4125 8.9167,5.4235 8.7787,5.5775 L6.4137,8.1845 L6.7577,5.7445 C6.7867,5.5395 6.6437,5.3495 6.4387,5.3215 C6.2397,5.2895 6.0447,5.4345 6.0157,5.6405 L5.5177,9.1735 L1.9227,13.1385 C1.8707,11.3255 2.1167,7.8915 4.3417,5.1355 C6.2947,2.7165 9.3557,1.3155 13.4497,0.9635 C13.5577,2.5445 13.5277,6.4535 11.0547,9.5165 M14.2717,0.1055 L14.2647,0.1065 L14.2597,-0.0005 C9.4657,0.2345 5.8917,1.7705 3.6357,4.5655 C0.2227,8.7935 1.0867,14.3135 1.1247,14.5465 L1.1317,14.5445 L1.1367,14.6525 C5.9307,14.4165 9.5047,12.8805 11.7607,10.0865 C15.1737,5.8585 14.3097,0.3385 14.2717,0.1055" id="path-11"></path>
        <circle id="path-13" cx="15" cy="15" r="14"></circle>
        <path d="M7.2803,14.1562 C4.2793,14.1562 1.8453,11.7222 1.8453,8.7212 C1.8453,5.8132 4.1303,3.4382 7.0023,3.2932 L7.0023,9.0032 L7.5883,9.0032 L7.5883,3.2952 C10.4463,3.4552 12.7153,5.8232 12.7153,8.7202 C12.7153,11.7222 10.2823,14.1562 7.2803,14.1562 L7.2803,14.1562 Z M8.1403,2.1232 L8.1403,2.7772 C7.8603,2.7372 7.5743,2.7152 7.2833,2.7152 C6.9873,2.7152 6.6943,2.7372 6.4053,2.7792 L6.4053,2.1232 L8.1403,2.1232 Z M5.3113,1.5612 L9.2543,1.5612 L9.2543,0.8442 L5.3113,0.8442 L5.3113,1.5612 Z M8.9843,2.6682 L8.9843,2.4062 L10.0993,2.4062 L10.0993,0.0002 L4.4673,0.0002 L4.4673,2.4062 L5.5613,2.4062 L5.5613,2.6712 C3.2253,3.3342 1.0003,5.5602 1.0003,8.7172 C1.0003,12.1812 3.8193,15.0002 7.2833,15.0002 C10.7483,15.0002 13.5663,12.1812 13.5663,8.7172 C13.5663,5.7202 11.4293,3.3582 8.9843,2.6682 L8.9843,2.6682 Z" id="path-15"></path>
        <circle id="path-17" cx="15" cy="15" r="14"></circle>
        <path d="M6.9902137,14 C3.13561015,14 0,10.859 0,7 C0,3.14 3.13561015,0 6.9902137,0 C10.8438187,0 13.9804274,3.14 13.9804274,7 C13.9804274,7.265 13.9644498,7.769 13.9364889,8.027 C13.9225085,8.154 13.8156581,8.25 13.687837,8.25 L7.48951468,8.25 L7.48951468,13.729 C7.48951468,13.86 7.38865588,13.97 7.25783903,13.979 C7.20291592,13.983 7.18394248,13.986 7.16996205,13.988 C7.13600959,13.995 7.11703615,14 6.9902137,14 Z M6.9902137,0.5 C3.41122429,0.5 0.499300979,3.416 0.499300979,7 C0.499300979,10.584 3.41122429,13.5 6.9902137,13.5 L6.9902137,8 C6.9902137,7.862 7.10205712,7.75 7.23986419,7.75 L13.4581586,7.75 C13.4731376,7.501 13.4811264,7.184 13.4811264,7 C13.4811264,3.416 10.5692031,0.5 6.9902137,0.5 Z M8.48811664,14.497 C12.0970641,14.41 14.362892,12.423 14.4747354,9.25 L8.48811664,9.25 L8.48811664,14.497 Z M14.7293789,8.75 C14.8681845,8.75 14.9790294,8.862 14.9790294,9 C14.9790294,12.644 12.3337328,15 8.23846615,15 C8.10065908,15 7.98881566,14.888 7.98881566,14.75 L7.98881566,9 C7.98881566,8.862 8.10065908,8.75 8.23846615,8.75 L14.7293789,8.75 Z M13.8038746,14.1768 L14.1573797,13.8228 L14.6566806,14.3228 L14.3031756,14.6768 L13.8038746,14.1768 Z M14.2510485,13 L14.2510485,12.5 L15,12.5 L15,13 L14.2510485,13 Z M12.232874,15 L12.232874,14.25 L12.732175,14.25 L12.732175,15 L12.232874,15 Z M6.9902137,7.25 C6.92630318,7.25 6.86239265,7.226 6.81346115,7.177 L4.81625724,5.177 L5.16976233,4.823 L6.9902137,6.646 L10.5582185,3.073 L10.9117236,3.427 L7.16696625,7.177 C7.11803475,7.226 7.05412423,7.25 6.9902137,7.25 Z" id="path-19"></path>
        <circle id="path-21" cx="15" cy="15" r="14"></circle>
        <path d="M10.1398829,10.6201873 C10.1398829,10.8305626 9.97939709,11 9.77878985,11 L5.67772717,11 C5.47820429,11 5.31663414,10.8305626 5.31663414,10.6201873 C5.31663414,10.4109491 5.47820429,10.2415117 5.67772717,10.2415117 L9.77878985,10.2415117 C9.97939709,10.2415117 10.1398829,10.4109491 10.1398829,10.6201873 M12.4181306,9.3465637 C12.4181306,9.55580186 12.255476,9.72637644 12.0570375,9.72637644 L3.39947951,9.72637644 C3.19995663,9.72637644 3.0373021,9.55580186 3.0373021,9.3465637 C3.0373021,9.13732555 3.19995663,8.96788813 3.39947951,8.96788813 L12.0570375,8.96788813 C12.255476,8.96788813 12.4181306,9.13732555 12.4181306,9.3465637 M5.27868141,7.35425257 C5.27976578,5.93620919 6.37605725,4.78767366 7.72825851,4.78767366 C9.07937541,4.78881083 10.1756669,5.93734636 10.1767512,7.35425257 C10.1756669,7.46796895 10.1680763,7.58054818 10.1528953,7.69199024 L5.30253741,7.69199024 C5.28735632,7.58054818 5.27976578,7.46796895 5.27868141,7.35425257 M14.6378226,7.69199024 L10.8837562,7.69199024 C11.0746042,5.86456787 9.81674257,4.22136605 8.07525483,4.02008804 C6.33268272,3.81994719 4.76469313,5.13792014 4.57384515,6.96534251 C4.54890479,7.20755842 4.54890479,7.4509115 4.57384515,7.69199024 L0.361093038,7.69199024 C0.161570158,7.69199024 0,7.86142766 0,8.07180298 C0,8.28104114 0.161570158,8.45047856 0.361093038,8.45047856 L14.6378226,8.45047856 C14.8384298,8.45047856 15,8.28104114 15,8.07180298 C15,7.86142766 14.8384298,7.69199024 14.6378226,7.69199024" id="path-23"></path>
        <circle id="path-25" cx="15" cy="15" r="14"></circle>
        <path d="M11.4385417,7.28904785 C11.4104167,5.8858254 11.109375,4.70970206 10.7041667,3.75755261 C11.3375,3.53462046 11.940625,3.24293354 12.5104167,2.88040836 C13.5875,4.04715605 14.2614583,5.59101326 14.3145833,7.28904785 L11.4385417,7.28904785 Z M12.5104167,12.1206334 C11.940625,11.7581082 11.3375,11.4643378 10.7041667,11.2424474 C11.0833333,10.3496771 11.3739583,9.26001806 11.4322917,7.96930342 L14.3010417,7.96930342 C14.1927083,9.56524759 13.5333333,11.0122231 12.5104167,12.1206334 L12.5104167,12.1206334 Z M8.60416667,14.2301549 C8.89895833,13.9593027 9.234375,13.6124036 9.56979167,13.180082 C9.84583333,12.8238072 10.1385417,12.3852351 10.409375,11.8654073 C10.96875,12.0570873 11.5020833,12.3050212 12.00625,12.6133759 C11.065625,13.4436419 9.89583333,14.0176401 8.60416667,14.2301549 L8.60416667,14.2301549 Z M7.83958333,13.9915966 L7.83958333,11.4080839 C8.503125,11.4299604 9.13958333,11.5185082 9.74791667,11.6706021 C9.54479167,12.0414612 9.31354167,12.397736 9.05104167,12.7383846 C8.61041667,13.3102993 8.16666667,13.7238697 7.83958333,13.9915966 L7.83958333,13.9915966 Z M7.83958333,7.96930342 L10.7510417,7.96930342 C10.7,9.07354677 10.4666667,10.1007014 10.0552083,11.0424335 C9.35104167,10.8538787 8.61145833,10.7465796 7.83958333,10.7215779 L7.83958333,7.96930342 Z M7.83958333,4.27738037 C8.609375,4.25342038 9.346875,4.147163 10.05,3.95964998 C10.4375,4.84929509 10.7291667,5.9577054 10.7583333,7.28904785 L7.83958333,7.28904785 L7.83958333,4.27738037 Z M7.83958333,1.00631988 C8.16145833,1.26987985 8.59583333,1.67511633 9.03229167,2.23765539 C9.265625,2.53767623 9.51145833,2.90332662 9.74375,3.33043961 C9.13645833,3.48253351 8.50104167,3.57003959 7.83958333,3.59191611 L7.83958333,1.00631988 Z M12.00625,2.38766581 C11.5020833,2.69497882 10.96875,2.94395444 10.409375,3.13459268 C10.1395833,2.61476491 9.846875,2.17619279 9.56979167,1.81991805 C9.234375,1.38759636 8.89895833,1.04069727 8.60520833,0.770886867 C9.896875,0.982359886 11.0666667,1.55739982 12.00625,2.38766581 L12.00625,2.38766581 Z M7.159375,3.59191611 C6.496875,3.57003959 5.86041667,3.48253351 5.25208333,3.32939787 C5.45416667,2.95958053 5.68645833,2.60226405 5.94791667,2.26161539 C6.38854167,1.68970067 6.83229167,1.27613029 7.159375,1.00840336 L7.159375,3.59191611 Z M7.159375,7.28904785 L4.240625,7.28904785 C4.26458333,6.08688103 4.5,4.97222029 4.94375,3.9575665 C5.64791667,4.14612126 6.3875,4.25342038 7.159375,4.27738037 L7.159375,7.28904785 Z M7.159375,10.7215779 C6.3875,10.7465796 5.64791667,10.8538787 4.94375,11.0424335 C4.53229167,10.1007014 4.3,9.07354677 4.24895833,7.96930342 L7.159375,7.96930342 L7.159375,10.7215779 Z M7.159375,13.9915966 C6.83229167,13.7238697 6.38854167,13.3102993 5.94791667,12.7383846 C5.68645833,12.397736 5.45416667,12.0414612 5.25208333,11.6706021 C5.86041667,11.5185082 6.496875,11.4299604 7.159375,11.4080839 L7.159375,13.9915966 Z M2.99375,12.6133759 C3.496875,12.3060629 4.03020833,12.0570873 4.58958333,11.8654073 C4.86041667,12.3852351 5.153125,12.8238072 5.42916667,13.180082 C5.765625,13.6124036 6.10104167,13.9603445 6.39479167,14.2301549 C5.103125,14.0176401 3.93333333,13.4436419 2.99375,12.6133759 L2.99375,12.6133759 Z M0.697916667,7.96930342 L3.56666667,7.96930342 C3.625,9.26001806 3.915625,10.3486353 4.29583333,11.2414057 C3.66145833,11.4643378 3.05833333,11.7581082 2.48854167,12.1195916 C1.46666667,11.0122231 0.80625,9.56524759 0.697916667,7.96930342 L0.697916667,7.96930342 Z M2.48854167,2.88040836 C3.05833333,3.24293354 3.66145833,3.53462046 4.29583333,3.75755261 C3.890625,4.70970206 3.58854167,5.8858254 3.56145833,7.28904785 L0.685416667,7.28904785 C0.7375,5.59101326 1.41145833,4.04715605 2.48854167,2.88040836 L2.48854167,2.88040836 Z M6.39375,0.770886867 C6.1,1.04069727 5.765625,1.38759636 5.42916667,1.81991805 C5.153125,2.17619279 4.86041667,2.61476491 4.58958333,3.13459268 C4.03020833,2.94395444 3.496875,2.69497882 2.99375,2.38662407 C3.93333333,1.55739982 5.103125,0.982359886 6.39375,0.770886867 L6.39375,0.770886867 Z M14.996875,7.60052781 C14.996875,7.56719217 14.9989583,7.53385652 14.9989583,7.50052087 C14.9989583,5.45142024 14.1729167,3.59295784 12.8375,2.23765539 C12.8166667,2.21057018 12.7947917,2.18869366 12.76875,2.16890062 C11.4135417,0.829224252 9.55104167,0 7.5,0 C5.44583333,0 3.58229167,0.830265991 2.22708333,2.17202584 C2.20520833,2.18869366 2.18541667,2.2084867 2.16875,2.23140496 C0.828125,3.58670741 0,5.44829502 0,7.50052087 C0,7.53594 0.00208333333,7.57135912 0.00208333333,7.60677825 C0.00208333333,7.61407042 0,7.62136259 0,7.62969651 C0,7.64219737 0.00208333333,7.65469824 0.00416666667,7.66719911 C0.0479166667,9.64754497 0.861458333,11.4414195 2.15833333,12.7581777 C2.17916667,12.7883881 2.20520833,12.8123481 2.23333333,12.8331829 C3.5875,14.1718175 5.44895833,15 7.49895833,15 L7.49895833,15 L7.5,15 C9.55104167,15 11.4135417,14.1718175 12.7677083,12.8310994 C12.7947917,12.8113063 12.8177083,12.7894298 12.8385417,12.7602611 C14.134375,11.4466282 14.9479167,9.65587888 14.9947917,7.67865824 C14.996875,7.66199042 15,7.64636433 15,7.62969651 C15,7.61927912 14.9979167,7.60990347 14.996875,7.60052781 L14.996875,7.60052781 Z" id="path-27"></path>
        <circle id="path-29" cx="15" cy="15" r="14"></circle>
        <path d="M11.044,2.156 C10.836,1.948 10.498,1.948 10.29,2.156 C10.19,2.256 10.134,2.392 10.134,2.533 L10.134,4.133 L6.4,4.133 C6.106,4.133 5.867,4.372 5.867,4.666 C5.867,4.961 6.106,5.2 6.4,5.2 L10.667,5.2 C10.961,5.2 11.2,4.961 11.2,4.666 L11.2,3.821 L13.647,6.266 L11.2,8.712 L11.2,7.866 C11.2,7.572 10.961,7.333 10.667,7.333 L4.8,7.333 L4.8,5.733 C4.8,5.439 4.561,5.2 4.267,5.2 C4.126,5.2 3.99,5.256 3.89,5.356 L0.156,9.089 C-0.052,9.298 -0.052,9.635 0.156,9.844 L3.89,13.576 C3.99,13.677 4.126,13.733 4.267,13.733 C4.337,13.734 4.406,13.72 4.471,13.693 C4.67,13.61 4.8,13.415 4.8,13.199 L4.8,11.6 L8.533,11.6 C8.828,11.6 9.066,11.361 9.066,11.067 C9.066,10.772 8.828,10.533 8.533,10.533 L4.267,10.533 C3.972,10.533 3.733,10.772 3.733,11.067 L3.733,11.912 L1.288,9.466 L3.733,7.021 L3.733,7.866 C3.733,8.161 3.972,8.4 4.267,8.4 L10.134,8.4 L10.134,10 C10.134,10.294 10.372,10.533 10.667,10.533 C10.809,10.533 10.944,10.477 11.044,10.377 L14.777,6.643 C14.985,6.435 14.985,6.097 14.777,5.889 L11.044,2.156 Z" id="path-31"></path>
        <rect id="path-33" x="1" y="1" width="28" height="28"></rect>
        <rect id="path-35" x="1" y="1" width="28" height="28"></rect>
        <rect id="path-37" x="1" y="1" width="28" height="28"></rect>
        <rect id="path-39" x="1" y="1" width="28" height="28"></rect>
        <path d="M23.7585708,17.7183589 L22.7267269,17.7183589 C22.7688675,17.6089429 22.7893358,17.4923912 22.8218443,17.3770287 C22.8471287,17.2854523 22.8808412,17.1986331 22.8989015,17.1022994 C22.926594,16.9631509 22.93141,16.8216237 22.9422462,16.6800965 C22.9494703,16.5849522 22.9711426,16.4945651 22.9711426,16.3982315 C22.9711426,15.6537272 22.7435831,14.9639309 22.3619092,14.3823612 L22.3619092,7.69609422 C22.3619092,7.63425041 22.3318088,7.56646008 22.284852,7.52126653 L19.8768148,5.14622647 C19.8298581,5.0962757 19.7672491,5.07130032 19.6998241,5.07130032 L8.30499199,5.07130032 C8.241179,5.07130032 8.17375396,5.09984361 8.12679723,5.14622647 L5.71876002,7.52126653 C5.66698722,7.56646008 5.64170283,7.62949319 5.64170283,7.69609422 L5.64170283,14.2610522 C5.64170283,14.3240853 5.67180329,14.3906864 5.71876002,14.4370692 L8.12679723,16.8156772 C8.17375396,16.865628 8.23636293,16.8917926 8.30499199,16.8917926 L15.4953911,16.8917926 C15.5062273,16.9702867 15.5122474,17.0499701 15.5278996,17.1296534 C15.5363277,17.1665219 15.550776,17.1998224 15.5580001,17.2366908 C15.5977327,17.3996254 15.6350573,17.5625601 15.6952582,17.7183589 L4.24142919,17.7183589 L4.24142919,4.23521962 L23.7585708,4.23521962 L23.7585708,17.7183589 Z M18.8990313,7.80099083 C19.0386975,7.80099083 19.1530792,7.91397471 19.1530792,8.05193397 C19.1530792,8.18989323 19.0386975,8.30287711 18.8990313,8.30287711 L9.10433994,8.30287711 C8.96467378,8.30287711 8.85029201,8.18989323 8.85029201,8.05193397 C8.85029201,7.91397471 8.96467378,7.80099083 9.10433994,7.80099083 L18.8990313,7.80099083 Z M19.2130394,18.4129124 C20.3351847,18.4129124 21.2478308,17.5090414 21.2478308,16.3982315 C21.2526469,15.2898002 20.3387968,14.3859291 19.2130394,14.3859291 C18.0860779,14.3859291 17.1722278,15.2898002 17.1722278,16.3982315 C17.1722278,17.5090414 18.0860779,18.4129124 19.2130394,18.4129124 Z M19.2130394,13.8840429 C20.6181291,13.8840429 21.7559267,15.0138816 21.7559267,16.3982315 C21.7607427,17.7861492 20.6181291,18.9147987 19.2130394,18.9147987 C17.8067456,18.9147987 16.664132,17.7861492 16.664132,16.3982315 C16.664132,15.0091244 17.8067456,13.8840429 19.2130394,13.8840429 Z M18.8990313,11.7063083 C19.0386975,11.7063083 19.1530792,11.8192922 19.1530792,11.9572515 C19.1530792,12.0952107 19.0386975,12.2081946 18.8990313,12.2081946 L9.10433994,12.2081946 C8.96467378,12.2081946 8.85029201,12.0952107 8.85029201,11.9572515 C8.85029201,11.8192922 8.96467378,11.7063083 9.10433994,11.7063083 L18.8990313,11.7063083 Z M9.10458074,10.2555953 C8.96491459,10.2555953 8.85053282,10.1426114 8.85053282,10.0046522 C8.85053282,9.86669292 8.96491459,9.75370905 9.10458074,9.75370905 L16.6309011,9.75370905 C16.7693632,9.75370905 16.884949,9.86669292 16.884949,10.0046522 C16.884949,10.1426114 16.7657511,10.2555953 16.626085,10.2555953 L9.10458074,10.2555953 Z M14.8825456,13.6592644 C15.0222118,13.6592644 15.1365936,13.7722483 15.1365936,13.9102075 C15.1365936,14.0481668 15.0222118,14.1611507 14.8825456,14.1611507 L9.10446034,14.1611507 C8.96479418,14.1611507 8.85041242,14.0481668 8.85041242,13.9102075 C8.85041242,13.7722483 8.96479418,13.6592644 9.10446034,13.6592644 L14.8825456,13.6592644 Z M21.0651812,19.0337291 C21.0061843,19.0753548 20.9423713,19.1062767 20.8821704,19.1419558 C20.7786248,19.2037996 20.6738751,19.2632648 20.5643094,19.3132156 C20.4944764,19.3453268 20.4222353,19.3726808 20.3511982,19.3988454 C20.2356124,19.4416604 20.1176185,19.4773395 19.9960127,19.5082614 C19.9285876,19.5249117 19.8623666,19.5415619 19.7949416,19.5546443 C19.6095227,19.5879448 19.4204918,19.6105416 19.2254408,19.6117309 C19.2206247,19.6117309 19.2158086,19.6129202 19.2109925,19.6129202 C19.0075134,19.6129202 18.8088503,19.5879448 18.6150033,19.553455 C18.5632305,19.5427512 18.5126617,19.5284796 18.4608889,19.5177758 C18.3152027,19.4820967 18.1707205,19.4392818 18.0322583,19.3845738 C17.9853016,19.3679235 17.9383449,19.350084 17.8937962,19.3286765 C17.7312537,19.2585076 17.5759353,19.1764456 17.429045,19.0813013 C17.4158008,19.0717869 17.4025566,19.0658403 17.3893124,19.0563259 C16.9185411,18.739971 16.5464994,18.2999286 16.2960635,17.7909065 C16.20215,17.5994285 16.1275009,17.3984361 16.0745241,17.1938759 C16.0672999,17.1677112 16.0576678,17.1463037 16.0516477,17.120139 C15.9962629,16.8834675 15.9649584,16.6396602 15.9649584,16.3934743 C15.9649584,15.5110107 16.328572,14.7082305 16.9161331,14.1266609 C17.5048982,13.5462805 18.3152027,13.1859214 19.2134006,13.1859214 C21.0073883,13.1859214 22.4630468,14.6285472 22.4630468,16.3982315 C22.4630468,16.4684004 22.4461905,16.5361908 22.4413745,16.6051704 C22.4305383,16.7669157 22.4197021,16.9286611 22.3835816,17.0856492 C22.3655213,17.1736577 22.3306047,17.2545304 22.3041163,17.3401602 C22.2595676,17.4816874 22.2126109,17.6220253 22.1475939,17.7564166 C21.9043822,18.270196 21.5311364,18.712617 21.0651812,19.0337291 L21.0651812,19.0337291 Z M20.9808999,19.6759533 L20.9808999,23.4769688 L19.3350065,22.1080799 C19.2844377,22.0712115 19.2290528,22.0509933 19.1700559,22.0509933 C19.111059,22.0509933 19.0520621,22.0712115 19.0099214,22.1080799 L17.4471053,23.4591293 L17.4471053,19.6759533 C17.4796138,19.6926035 17.5169384,19.6985501 17.5518549,19.7152003 C17.755334,19.8151018 17.9672413,19.8947852 18.1899848,19.9578183 C18.2429616,19.97209 18.2923263,19.9923081 18.3453032,20.0053905 C18.6246355,20.0708022 18.9123959,20.1148064 19.2134006,20.1148064 C19.5083851,20.1148064 19.7925335,20.0719915 20.0682538,20.0089584 C20.1416989,19.9911188 20.211532,19.9637648 20.2837731,19.9423574 C20.4836402,19.8828922 20.6762832,19.8115339 20.861702,19.7223361 C20.9002306,19.702118 20.9435753,19.6961714 20.9808999,19.6759533 L20.9808999,19.6759533 Z M21.8538134,13.7603552 C21.1747469,13.0967236 20.2416325,12.6852244 19.2134006,12.6852244 L19.2109925,12.6852244 L19.2085845,12.6852244 C17.1412845,12.6852244 15.4556585,14.3443035 15.4508424,16.3899064 L8.40974161,16.3899064 L6.14979868,14.1563935 L6.14979868,7.79718506 L8.40974161,5.56842939 L19.5938705,5.56842939 L21.8538134,7.79718506 L21.8538134,13.7603552 Z M24.0126187,3.73333333 L3.98738126,3.73333333 C3.84651108,3.73333333 3.73333333,3.84512791 3.73333333,3.98427647 L3.73333333,17.9657341 C3.73333333,18.1036934 3.84651108,18.2166773 3.98738126,18.2166773 L15.9553262,18.2166773 C16.2045581,18.6519625 16.5356632,19.0313505 16.9353974,19.334623 L16.9353974,24.0157235 C16.9353974,24.1156251 16.9943943,24.2036336 17.0834917,24.2452592 C17.1172042,24.2583415 17.1557328,24.2666667 17.1894453,24.2666667 C17.2484422,24.2666667 17.3086431,24.2452592 17.3459677,24.2036336 L19.1664438,22.6313737 L21.0627732,24.2083908 C21.1386263,24.2714239 21.24458,24.2833169 21.3324733,24.240502 C21.4227747,24.2036336 21.4805676,24.1120571 21.4805676,24.0157235 L21.4805676,19.3417589 C21.8827098,19.037297 22.217427,18.6579091 22.4678629,18.2202452 L24.0126187,18.2202452 C24.1522849,18.2202452 24.2666667,18.1072613 24.2666667,17.9693021 L24.2666667,3.98427647 C24.2666667,3.84512791 24.1522849,3.73333333 24.0126187,3.73333333 L24.0126187,3.73333333 Z" id="path-41"></path>
        <rect id="path-43" x="1" y="1" width="28" height="28"></rect>
    </defs>
    <g id="sprite-programs" stroke="none" stroke-width="1" fill="none" fill-rule="evenodd">
        <g id="Start">
            <mask id="mask-2" fill="white">
                <use xlink:href="#path-1"></use>
            </mask>
            <use id="Triangle" fill="#D8D8D8" fill-rule="evenodd" xlink:href="#path-1"></use>
            <g id="UI/Color/Flat/Green" mask="url(#mask-2)" fill="#7AB800" fill-rule="evenodd">
                <rect id="Base" x="0" y="0" width="30" height="30"></rect>
            </g>
            <g id="Spring-Term" mask="url(#mask-2)">
                <g transform="translate(14.000000, 14.000000)">
                    <mask id="mask-4" fill="white">
                        <use xlink:href="#path-3"></use>
                    </mask>
                    <g id="Fill-14" stroke="none" fill="none"></g>
                    <g id="UI/Color/Flat/White" stroke="none" fill="none" mask="url(#mask-4)" fill-rule="evenodd">
                        <rect id="Base" fill="#FFFFFF" x="0" y="0" width="15" height="15"></rect>
                    </g>
                </g>
            </g>
        </g>
        <g id="Start" transform="translate(0.000000, 30.000000)">
            <mask id="mask-6" fill="white">
                <use xlink:href="#path-5"></use>
            </mask>
            <use id="Triangle" fill="#D8D8D8" fill-rule="evenodd" xlink:href="#path-5"></use>
            <g id="UI/Color/Flat/Yellow" mask="url(#mask-6)" fill="#E7E600" fill-rule="evenodd">
                <rect id="Base" x="0" y="0" width="30" height="30"></rect>
            </g>
            <g id="Summer" mask="url(#mask-6)">
                <g transform="translate(14.000000, 14.000000)">
                    <mask id="mask-8" fill="white">
                        <use xlink:href="#path-7"></use>
                    </mask>
                    <g id="Stroke-17" stroke="none" fill="none" fill-rule="nonzero"></g>
                    <g id="UI/Color/Flat/White" stroke="none" fill="none" mask="url(#mask-8)" fill-rule="evenodd">
                        <rect id="Base" fill="#FFFFFF" x="0" y="0" width="15" height="15"></rect>
                    </g>
                </g>
            </g>
        </g>
        <g id="Start" transform="translate(0.000000, 60.000000)">
            <mask id="mask-10" fill="white">
                <use xlink:href="#path-9"></use>
            </mask>
            <use id="Triangle" fill="#D8D8D8" fill-rule="evenodd" xlink:href="#path-9"></use>
            <g id="UI/Color/Flat/Orange" mask="url(#mask-10)" fill="#E08722" fill-rule="evenodd">
                <rect id="Base" x="-1.42108547e-14" y="0" width="30" height="30"></rect>
            </g>
            <g id="Fall" mask="url(#mask-10)">
                <g transform="translate(14.000000, 14.000000)">
                    <mask id="mask-12" fill="white">
                        <use xlink:href="#path-11"></use>
                    </mask>
                    <g id="Fill-1" stroke="none" fill="none"></g>
                    <g id="UI/Color/Flat/White" stroke="none" fill="none" mask="url(#mask-12)" fill-rule="evenodd">
                        <rect id="Base" fill="#FFFFFF" x="0" y="0" width="32" height="32"></rect>
                    </g>
                </g>
            </g>
        </g>
        <g id="Course" transform="translate(0.000000, 90.000000)">
            <mask id="mask-14" fill="white">
                <use xlink:href="#path-13"></use>
            </mask>
            <g id="Oval"></g>
            <g id="UI/Color/Flat/Blue" mask="url(#mask-14)" fill="#0065BD" fill-rule="evenodd">
                <rect id="Base" x="0" y="0" width="30" height="30"></rect>
            </g>
            <g id="Icons/Schedule/Full-Time" mask="url(#mask-14)">
                <g transform="translate(7.500000, 7.500000)">
                    <mask id="mask-16" fill="white">
                        <use xlink:href="#path-15"></use>
                    </mask>
                    <use id="Fill-1" stroke="none" fill="#FFFFFF" fill-rule="evenodd" xlink:href="#path-15"></use>
                    <g id="UI/Color/Flat/White" stroke="none" fill="none" mask="url(#mask-16)" fill-rule="evenodd">
                        <rect id="Base" fill="#FFFFFF" x="0" y="0" width="15" height="15"></rect>
                    </g>
                </g>
            </g>
        </g>
        <g id="Course" transform="translate(0.000000, 120.000000)">
            <mask id="mask-18" fill="white">
                <use xlink:href="#path-17"></use>
            </mask>
            <g id="Oval"></g>
            <g id="UI/Color/Flat/Green" mask="url(#mask-18)" fill="#7AB800" fill-rule="evenodd">
                <rect id="Base" x="0" y="0" width="30" height="30"></rect>
            </g>
            <g id="Icons/Schedule/Part-Tme" mask="url(#mask-18)">
                <g transform="translate(7.500000, 7.500000)">
                    <mask id="mask-20" fill="white">
                        <use xlink:href="#path-19"></use>
                    </mask>
                    <g id="Fill-6" stroke="none" fill="none"></g>
                    <g id="UI/Color/Flat/White" stroke="none" fill="none" mask="url(#mask-20)" fill-rule="evenodd">
                        <rect id="Base" fill="#FFFFFF" x="0" y="0" width="15" height="15"></rect>
                    </g>
                </g>
            </g>
        </g>
        <g id="Course" transform="translate(0.000000, 150.000000)">
            <mask id="mask-22" fill="white">
                <use xlink:href="#path-21"></use>
            </mask>
            <g id="Oval"></g>
            <g id="UI/Color/Flat/Red" mask="url(#mask-22)" fill="#DE3831" fill-rule="evenodd">
                <rect id="Base-Copy" x="0" y="0" width="30" height="30"></rect>
            </g>
            <g id="Icons/Schedule/Evening" mask="url(#mask-22)">
                <g transform="translate(7.500000, 7.500000)">
                    <mask id="mask-24" fill="white">
                        <use xlink:href="#path-23"></use>
                    </mask>
                    <g id="Fill-1" stroke="none" fill="none"></g>
                    <g id="UI/Color/Flat/White" stroke="none" fill="none" mask="url(#mask-24)" fill-rule="evenodd">
                        <rect id="Base" fill="#FFFFFF" x="0" y="0" width="15" height="15"></rect>
                    </g>
                </g>
            </g>
        </g>
        <g id="Course" transform="translate(0.000000, 180.000000)">
            <mask id="mask-26" fill="white">
                <use xlink:href="#path-25"></use>
            </mask>
            <g id="Oval"></g>
            <g id="UI/Color/Flat/Orange" mask="url(#mask-26)" fill="#E08722" fill-rule="evenodd">
                <rect id="Base" x="-1.42108547e-14" y="0" width="30" height="30"></rect>
            </g>
            <g id="Icons/Schedule/Online" mask="url(#mask-26)">
                <g transform="translate(7.500000, 7.500000)">
                    <mask id="mask-28" fill="white">
                        <use xlink:href="#path-27"></use>
                    </mask>
                    <g id="Fill-1" stroke="none" fill="none"></g>
                    <g id="UI/Color/Flat/White" stroke="none" fill="none" mask="url(#mask-28)" fill-rule="evenodd">
                        <rect id="Base" fill="#FFFFFF" x="0" y="0" width="15" height="15"></rect>
                    </g>
                </g>
            </g>
        </g>
        <g id="Course" transform="translate(0.000000, 210.000000)">
            <mask id="mask-30" fill="white">
                <use xlink:href="#path-29"></use>
            </mask>
            <g id="Oval"></g>
            <g id="UI/Color/Flat/Purple" mask="url(#mask-30)" fill="#8E258D" fill-rule="evenodd">
                <rect id="Base-Copy" x="0" y="0" width="30" height="30"></rect>
            </g>
            <g id="Icons/Schedule/Transfer" mask="url(#mask-30)">
                <g transform="translate(7.500000, 7.500000)">
                    <mask id="mask-32" fill="white">
                        <use xlink:href="#path-31"></use>
                    </mask>
                    <use id="Fill-1" stroke="none" fill="#FFFFFF" fill-rule="evenodd" xlink:href="#path-31"></use>
                    <g id="UI/Color/Flat/White" stroke="none" fill="none" mask="url(#mask-32)" fill-rule="evenodd">
                        <rect id="Base" fill="#FFFFFF" x="0" y="0" width="15" height="15"></rect>
                    </g>
                </g>
            </g>
        </g>
        <g id="Degree-with-Text" transform="translate(0.000000, 240.000000)">
            <mask id="mask-34" fill="white">
                <use xlink:href="#path-33"></use>
            </mask>
            <g id="Rectangle"></g>
            <g id="UI/Color/Flat/Blue" mask="url(#mask-34)" fill="#0065BD" fill-rule="evenodd">
                <rect id="Base" x="0" y="0" width="30" height="30"></rect>
            </g>
            <text id="A.A.S." mask="url(#mask-34)" font-family="TitilliumText22L-Bold, TitilliumText22L" font-size="12" font-weight="bold" letter-spacing="-0.578571498" fill="#FFFFFF">
                <tspan x="5.921143" y="27">A.A.</tspan>
            </text>
        </g>
        <g id="Degree-with-Text" transform="translate(0.000000, 270.000000)">
            <mask id="mask-36" fill="white">
                <use xlink:href="#path-35"></use>
            </mask>
            <g id="Rectangle"></g>
            <g id="UI/Color/Flat/Dark-Gray" mask="url(#mask-36)" fill="#5A7E92" fill-rule="evenodd">
                <rect id="Base" x="0" y="0" width="30" height="30"></rect>
            </g>
            <text id="A.A.S." mask="url(#mask-36)" font-family="TitilliumText22L-Bold, TitilliumText22L" font-size="12" font-weight="bold" letter-spacing="-0.578571498" fill="#FFFFFF">
                <tspan x="6.365143" y="27">A.S.</tspan>
            </text>
        </g>
        <g id="Degree-with-Text" transform="translate(0.000000, 300.000000)">
            <mask id="mask-38" fill="white">
                <use xlink:href="#path-37"></use>
            </mask>
            <g id="Rectangle"></g>
            <g id="UI/Color/Flat/Yellow" mask="url(#mask-38)" fill="#E7E600" fill-rule="evenodd">
                <rect id="Base" x="0" y="0" width="30" height="30"></rect>
            </g>
            <text id="A.A.S." mask="url(#mask-38)" font-family="TitilliumText22L-Bold, TitilliumText22L" font-size="12" font-weight="bold" letter-spacing="-0.578571498" fill="#FFFFFF">
                <tspan x="1.8257145" y="27">A.A.S.</tspan>
            </text>
        </g>
        <g id="Degree" transform="translate(0.000000, 330.000000)">
            <mask id="mask-40" fill="white">
                <use xlink:href="#path-39"></use>
            </mask>
            <g id="Rectangle"></g>
            <g id="UI/Color/Flat/Dark-Gray" mask="url(#mask-40)" fill="#5A7E92" fill-rule="evenodd">
                <rect id="Base" x="0" y="0" width="30" height="30"></rect>
            </g>
            <g id="Icons/Schedule/Certificate" mask="url(#mask-40)">
                <g transform="translate(1.000000, 1.000000)">
                    <mask id="mask-42" fill="white">
                        <use xlink:href="#path-41"></use>
                    </mask>
                    <use id="Fill-1" stroke="none" fill="#FFFFFF" fill-rule="evenodd" xlink:href="#path-41"></use>
                </g>
            </g>
        </g>
        <g id="Degree" transform="translate(0.000000, 360.000000)">
            <mask id="mask-44" fill="white">
                <use xlink:href="#path-43"></use>
            </mask>
            <g id="Rectangle"></g>
            <g id="UI/Color/Flat/Black" mask="url(#mask-44)" fill="#000000" fill-rule="evenodd">
                <rect id="Base" x="0" y="0" width="30" height="30"></rect>
            </g>
            <g id="Icons/Schedule/Diploma" mask="url(#mask-44)" fill="#FFFFFF" fill-rule="evenodd">
                <g transform="translate(1.000000, 1.000000)" id="Fill-1">
                    <path d="M10.9666667,13.3300903 L10.9666667,14.9132827 C10.9614815,15.2720044 11.2894444,15.6015721 11.655,15.60791 C12.0218519,15.6129802 12.3601852,15.2922855 12.3666667,14.9348314 C12.5053704,15.0869395 12.6518519,15.2403152 12.8035185,15.3898883 C13.4685185,16.0160668 14.2488889,16.5801346 15.0137037,16.8881536 C13.0122222,19.0290759 11.4735185,21.1471819 10.3911111,22.7278392 C10.3651852,22.7189662 10.1046296,22.8799473 9.82981481,22.8913554 C8.75518519,22.7848797 7.54962963,22.1979958 6.64222222,21.3449225 C5.72574074,20.4817087 5.13333333,19.3827273 5.13333333,18.3357162 C5.13333333,17.9465728 5.20722222,17.8172809 5.2862963,17.7653106 C6.88722222,16.7271725 8.88740741,15.2403152 10.9666667,13.3300903 L10.9666667,13.3300903 Z M10.7333333,10.3500381 C10.85,10.3500381 11.0483333,10.423557 11.2,10.5705949 C11.3516667,10.7176328 11.4333333,10.9103031 11.4333333,11.0345248 C11.4333333,11.1562113 11.3594444,11.262687 11.2,11.262687 C11.082037,11.262687 10.885,11.1815626 10.7333333,11.0345248 C10.5816667,10.8874869 10.5,10.7011544 10.5,10.5782003 C10.5,10.4565138 10.5738889,10.3500381 10.7333333,10.3500381 L10.7333333,10.3500381 Z M20.8185185,7.84025351 C21.5859259,8.50572669 22.7292593,9.28274585 22.8588889,10.3639813 C22.7694444,10.5389057 22.4012963,10.6390436 22.1666667,10.5782003 C21.2722222,10.5782003 20.2351852,9.92286767 19.4314815,9.19528366 L20.8185185,7.84025351 Z M16.3618519,7.35477499 C17.197963,9.20922691 18.9959259,11.0877626 20.8690741,11.7329547 C19.3744444,12.8179929 17.7190741,14.1742906 16.1142593,15.7549478 C15.2146296,15.645937 14.3409259,14.9601827 13.7951852,14.4278042 C13.1314815,13.7293742 12.4988889,12.9954524 12.227963,12.1246332 C13.7757407,10.5883408 15.2146296,8.87965924 16.3618519,7.35477499 L16.3618519,7.35477499 Z M18.6653704,5.10230673 C19.8644444,5.10230673 21.047963,5.9262259 21.9112963,6.89211268 L21.8827778,6.91999918 C21.6312963,6.71211803 21.3888889,6.52451797 21.1892593,6.37874766 C21.0583333,6.28241249 20.8924074,6.23424491 20.7290741,6.24311789 C20.557963,6.25199086 20.392037,6.32424224 20.2714815,6.44212606 L18.4696296,8.20404552 C17.8642593,7.38266148 17.5246296,6.52578554 17.5,6.01495566 C17.5,5.41666358 18.1662963,5.10864457 18.6653704,5.10230673 L18.6653704,5.10230673 Z M18.6653704,3.73333333 C17.605,3.73333333 16.7727778,4.33289298 16.2322222,5.17329053 C15.2937037,6.54226393 13.9416667,8.26488878 12.4392593,9.90005144 C12.3627778,9.79357574 12.2772222,9.69090273 12.1838889,9.60090541 C11.8092593,9.23838097 11.3114815,8.98106467 10.7333333,8.98106467 C9.81555556,8.98106467 9.1,9.72892977 9.1,10.5782003 C9.1,10.7379139 9.12722222,10.8887544 9.16481481,11.0345248 L8.4,11.0345248 C7.99685185,11.0345248 7.7,11.3957816 7.7,11.7190115 C7.7,12.0409737 8.03314815,12.4034982 8.4,12.4034982 L9.92314815,12.4034982 C7.93851852,14.2186555 6.02907407,15.6421343 4.51240741,16.6244995 C3.89148148,17.0275861 3.73333333,17.7374241 3.73333333,18.3357162 C3.73333333,19.8682059 4.53962963,21.2688684 5.66611111,22.3285553 C6.95462963,23.3172583 8.40518519,24.2666667 9.8,24.2666667 C10.4948148,24.2666667 11.1403704,24.1031504 11.55,23.5048583 C12.7944444,21.6858983 14.6287037,19.1647056 17.0618519,16.7601292 C19.2033333,14.6432907 21.4640741,12.9029199 23.2309259,11.7621088 C23.8064815,11.4363438 24.2666667,10.8824166 24.2666667,10.3500381 C24.2666667,9.35372965 23.5174074,8.52347264 22.8951852,7.86180217 L23.3631481,7.4054777 C23.5925926,7.1760479 23.6224074,6.7805667 23.427963,6.52071527 C22.4,5.15681215 20.7407407,3.73333333 18.6653704,3.73333333 L18.6653704,3.73333333 Z"></path>
                </g>
            </g>
        </g>
    </g>
</svg>