<?xml version="1.0" encoding="UTF-8"?>
<svg width="130px" height="910px" viewBox="0 0 130 910" version="1.1" xmlns="http://www.w3.org/2000/svg" xmlns:xlink="http://www.w3.org/1999/xlink">
    <!-- Generator: Sketch 53.2 (72643) - https://sketchapp.com -->
    <title>sprite-academics</title>
    <desc>Created with Sketch.</desc>
    <defs>
        <path d="M50.1784739,71.9940497 C51.0421459,72.7151753 51.9136899,73.4256133 52.7919813,74.1281764 C53.6978247,73.3980508 54.5946716,72.6566752 55.4825218,71.9029246 C53.7152556,71.9631122 51.9474271,71.9934872 50.1784739,71.9940497 M77.9537367,54.1537856 C80.5604966,57.3341631 83.2234852,60.6787908 85.5614721,64.0509809 C105.663774,58.9716019 110.587154,46.8755924 87.3945259,41.4632131 C84.6376355,45.8861541 81.2414255,50.1409074 77.9537367,54.1537856 M52.791419,34.1788323 C51.7888623,34.980958 50.7964267,35.7948961 49.81355,36.6200843 C51.680341,36.4923967 53.5510679,36.4012716 55.4212326,36.353459 C54.5547492,35.617146 53.6775824,34.8926454 52.791419,34.1788323 M71.5954018,61.4921664 C71.509372,63.2657303 71.3941032,65.0364817 71.2518448,66.8066706 C74.5474055,66.3279827 77.8491515,65.7328573 81.1120996,65.0617942 C79.2531807,62.4169171 77.3346594,59.8131026 75.3447277,57.2644131 C74.118381,58.6942892 72.8689805,60.1044778 71.5954018,61.4921664 M71.7792694,52.8560971 C71.7848923,53.7223478 71.7820809,54.5897235 71.7736466,55.4576616 C72.1363213,55.0239738 72.4973092,54.5897235 72.8566102,54.1520981 C72.4995584,53.7189728 72.1402573,53.2875349 71.7792694,52.8560971 M71.1281418,38.8627735 C71.3508072,41.5239631 71.5228668,44.1896527 71.6358864,46.8570298 C72.2915124,47.5714054 72.964007,48.3189685 73.6561816,49.1008441 C74.2077845,49.7252196 74.7711955,50.3715326 75.34529,51.0409082 C77.9891608,47.654093 80.6139138,44.1705277 82.9215373,40.5435249 C79.0198318,39.8370243 75.0725811,39.2643988 71.1281418,38.8627735 M37.1491728,38.0190229 C37.6912169,33.4768318 38.4677345,28.9847032 39.3859482,24.5043872 C19.8296262,12.234565 10.2482654,19.9633211 22.9857399,40.5384623 C27.5824315,39.4539615 32.4602662,38.7030234 37.1491728,38.0190229 M36.4058301,46.8013423 C36.5160383,44.553028 36.6892225,42.3103388 36.9208845,40.071587 C32.7014871,40.739275 28.3690702,41.4913381 24.2233323,42.4869639 C26.4865352,45.9542166 28.8858114,49.3466568 31.4245346,52.6181594 C33.027051,50.6291578 34.6863582,48.6890938 36.4058301,46.8013423 M36.3906484,58.6335392 C36.2601979,55.6843493 36.2247739,52.7317845 36.2967465,49.7809072 C35.041161,51.2096583 33.8209994,52.6682219 32.6328882,54.1532231 C33.8508006,55.6747868 35.1030125,57.1704755 36.3906484,58.6335392 M37.0384024,67.4670461 C36.8449758,65.5359821 36.6830373,63.6032306 36.5565229,61.6659791 C34.7841961,59.7276025 33.074283,57.7318509 31.4262215,55.6871618 C28.906616,58.9333519 26.5495113,62.2847295 24.291369,65.7171073 C28.4556623,66.5434204 32.826877,67.0491083 37.0384024,67.4670461 M39.2734909,83.8740591 C38.4902259,79.7970559 37.9723601,75.6294901 37.4814841,71.5086118 C32.2612168,71.117674 27.0190204,70.6626112 21.8859076,69.5955478 C10.0486537,89.8894389 21.6952925,94.8608178 39.2734909,83.8740591 M39.5158364,71.6486744 C39.9954667,75.2824273 40.5296388,79.0095553 41.2420557,82.6050581 C44.6343297,80.3567438 48.0119843,77.8862419 51.2187038,75.3774899 C49.8495364,74.2609265 48.4977998,73.1258006 47.165181,71.9664872 C44.6140874,71.9192372 42.0629939,71.8112371 39.5158364,71.6486744 M38.6679084,63.9148558 C38.7747428,65.1624818 38.8978836,66.4078578 39.0345192,67.6532338 C40.2603036,67.7595464 41.4888994,67.8506714 42.7163707,67.9294215 C41.3365198,66.6221705 39.9864701,65.2839819 38.6679084,63.9148558 M38.865271,39.7734617 C38.6909622,41.3861505 38.549266,43.0022143 38.4390578,44.6205281 C40.2603036,42.7170266 42.1422763,40.8725876 44.0771039,39.0843987 C42.3357028,39.2846489 40.5988,39.5169615 38.865271,39.7734617 M41.1251001,25.6232006 C40.2962899,29.6366412 39.6024285,33.6759569 39.1003067,37.7439601 C41.5653704,37.4064599 44.0349324,37.1173346 46.5129287,36.888397 C48.0502198,35.5333334 49.6139384,34.2103323 51.2001484,32.9148938 C47.9450722,30.3690168 44.5713537,27.8990774 41.1251001,25.6232006 M67.6824505,42.7063391 C67.5756161,41.313588 67.4507885,39.9213994 67.3051563,38.5314608 C65.9247431,38.4318982 64.5432054,38.3548356 63.1599808,38.3019606 C64.695585,39.7402742 66.2047618,41.2089629 67.6824505,42.7063391 M67.8635067,59.9351652 C68.0664921,56.1281622 68.1137242,52.3217217 67.9945195,48.5119062 C66.3284648,46.6770297 64.6303598,44.9057158 62.8900833,43.1867144 C61.1694868,41.4868381 59.401096,39.8353368 57.5770388,38.221523 C54.1588996,38.254148 50.7435718,38.4352732 47.340052,38.7474609 C44.1698811,41.5397131 41.1419687,44.479903 38.2748702,47.5849054 C38.0842551,52.0297839 38.1528541,56.4650999 38.4407447,60.9043535 C40.7556779,63.4007304 43.1853176,65.7981073 45.7021117,68.0914216 C50.4388126,68.2984218 55.1693283,68.2697343 59.9026555,67.982859 C62.6691047,65.4150445 65.3230967,62.7268549 67.8635067,59.9351652 M67.2798534,67.326421 C67.3298969,66.8376081 67.3788158,66.3493578 67.4249233,65.8605449 C66.8811924,66.4084203 66.3329631,66.9529207 65.7819224,67.4934837 C66.2812327,67.4400461 66.7805431,67.3843586 67.2798534,67.326421 M66.8384586,71.130049 C65.0419534,71.3106117 63.2443237,71.4647368 61.442758,71.5912994 C59.6052059,73.2664257 57.7294184,74.9016145 55.8277657,76.5030533 C58.7977626,78.7766801 61.8104933,80.9878693 64.9025064,83.092746 C65.7414378,79.1569304 66.3301517,75.1215522 66.8384586,71.130049 M70.9555198,36.9339595 C75.3194248,37.3631473 79.7030098,37.9863978 84.0146222,38.7772735 C95.4605247,19.6995084 89.3878313,10.6303137 68.9779585,22.6250732 C69.962522,27.3720144 70.510189,32.1077057 70.9555198,36.9339595 M65.8690768,28.2230776 C65.2837366,33.0842065 59.4055943,34.8476454 56.1465821,31.5598303 C56.0408723,31.6408303 55.9351624,31.7223929 55.8288903,31.8033929 C57.5882845,33.2838941 59.3235004,34.7953328 61.0277906,36.337709 C62.1130034,36.3596465 63.1925934,36.3956466 64.2699342,36.4457091 C65.219636,36.4901466 66.1586543,36.5441467 67.0892383,36.6082717 C66.7546779,33.8047695 66.3363368,31.0074548 65.8690768,28.2230776 M63.9494309,23.2500112 C64.2316987,23.0570735 64.5134042,22.8618859 64.7984834,22.6717607 C60.0151128,1.27593131 47.895591,-1.66763352 42.0905459,21.3695722 C46.3481788,24.1162619 50.3381633,27.2555768 54.2415557,30.4792669 C54.4231742,30.3330168 54.7723541,30.0641416 54.9967064,29.8892039 C52.4742894,24.330012 59.3802914,19.259633 63.9494309,23.2500112 M41.6311579,53.7189728 C41.6311579,60.1967279 46.8997818,65.4364195 53.3694494,65.4364195 C59.8385548,65.4364195 65.1071787,60.1967279 65.1071787,53.7189728 C65.1071787,47.2400926 59.8385548,42.000401 53.3694494,42.000401 C46.9003441,42.000401 41.6311579,47.2400926 41.6311579,53.7189728 M84.552168,70.436486 C84.2114224,69.862173 83.8723637,69.2884226 83.521497,68.7208596 C79.3425842,69.6039853 75.1321834,70.1771733 70.893106,70.6839862 C70.3847991,75.6334276 69.8107047,80.6706191 68.7333639,85.5328729 C77.1125562,90.5216894 93.9642806,96.5933192 89.0600183,80.0783061 C85.4253988,80.1919312 82.56561,76.8816161 83.2695926,73.2703632 C83.5670422,71.743737 84.56004,70.431986 84.552168,70.436486 M5.56947999,52.8510346 C0.122611343,59.0666645 17.9066066,64.3035436 22.261515,65.2862319 C24.7670633,61.4769789 27.3974392,57.7447885 30.2066222,54.1532231 C27.3884426,50.5498453 24.7513193,46.8097798 22.2401481,42.9881518 C19.2105488,43.7987149 16.3338914,44.7634032 13.4797255,46.0729042 C15.1581505,51.1877208 9.85972546,55.1809114 5.56947999,52.8510346 M64.3857652,85.3545603 C60.9350134,82.9937459 57.5438639,80.3888064 54.2601111,77.8114293 C50.3674022,81.0283694 46.4533263,84.1131218 42.2075015,86.862624 C43.0419346,90.1279391 44.0489896,93.3409416 45.5165571,96.3823815 C49.8748393,94.5761926 54.4614097,98.5750082 53.2176321,103.150387 C59.6035191,104.092013 63.4956658,90.8698771 64.3857652,85.3545603 M2.6686443,49.6841571 C0.717510386,44.1013402 7.48069157,39.2351488 12.2038976,43.8870275 C14.9433571,42.7963391 18.1303966,41.7787758 20.9884985,41.0323377 C5.65101153,16.5444434 16.0077653,5.37318455 40.33565,20.2659463 C46.988623,-6.96920021 62.1332457,-6.56363739 68.4707761,20.3356964 C92.2442464,6.04987258 102.233827,16.1338181 88.4752404,39.6733367 C115.804048,45.7685915 113.358102,60.972416 87.9095803,67.6813588 C88.1058182,68.0087341 88.3014939,68.3361093 88.4966073,68.6634846 C88.4853616,68.6662971 88.4735536,68.6702346 88.4628701,68.6736096 C93.5757406,68.2449843 96.5462998,74.4015516 93.0657468,78.2445547 C100.505359,100.681572 81.2329912,95.7068185 68.1935689,87.8019997 C66.4375484,97.2002571 61.0334135,111.998519 49.7646311,106.992827 C44.3700551,109.141579 39.4517357,102.457949 43.3849293,97.9191327 C42.0410647,94.7005052 41.0351343,91.5094401 40.204075,88.122625 C17.7564761,101.805448 5.48063874,93.1868165 19.8453702,69.140485 C11.6073117,67.1812959 -6.87166956,60.393603 2.6686443,49.6841571" id="path-1"></path>
        <path d="M13.7501995,77 C12.2297356,77 11,75.6137487 11,73.9060396 L11,55.3433994 C11,53.6362513 12.2297356,52.25 13.7501995,52.25 L21.9998005,52.25 C23.5207631,52.25 24.75,53.6362513 24.75,55.3433994 L24.75,73.9060396 C24.75,75.6137487 23.5207631,77 21.9998005,77 L13.7501995,77 Z M55.0001995,77 C53.4792369,77 52.25,75.7061596 52.25,74.1122906 L52.25,22.1377094 C52.25,20.5438404 53.4792369,19.25 55.0001995,19.25 L63.2502992,19.25 C64.7707631,19.25 66,20.5438404 66,22.1377094 L66,74.1122906 C66,75.7061596 64.7707631,77 63.2502992,77 L55.0001995,77 Z M35.7500997,77 C34.2291924,77 33,75.6797649 33,74.0533806 L33,38.6966194 C33,37.0702351 34.2291924,35.75 35.7500997,35.75 L43.9999003,35.75 C45.5208076,35.75 46.75,37.0702351 46.75,38.6966194 L46.75,74.0533806 C46.75,75.6797649 45.5208076,77 43.9999003,77 L35.7500997,77 Z M84.7784048,81.2403295 C86.3952723,81.2403295 87.7020193,82.5357024 87.7020193,84.1314593 C87.7020193,85.7272162 86.3952723,87.022065 84.7784048,87.022065 L8.77026024,87.022065 C3.93503133,87.022065 -5.30120482e-05,83.1307038 -5.30120482e-05,78.3491996 L-5.30120482e-05,3.18558999 C-5.30120482e-05,1.59035732 1.30669398,0.294984364 2.92356145,0.294984364 C4.5398988,0.294984364 5.84664578,1.59035732 5.84664578,3.18558999 L5.84664578,78.3491996 C5.84664578,79.9423354 7.15657349,81.2403295 8.77026024,81.2403295 L84.7784048,81.2403295 Z" id="path-3"></path>
        <path d="M72.340878,48.4614031 L66.4671494,38.8852587 C65.5396318,36.9698025 62.7570787,37.2890452 62.1392837,39.523744 L55.3374874,63.4646732 L44.517548,24.5204739 C43.8992029,21.9659644 40.4988548,21.9659644 39.5713372,24.5204739 L29.9875379,55.8034168 L25.9688447,49.7383739 C25.3504996,49.0998885 24.7321545,48.4614031 23.8046368,48.4614031 L2.78255305,48.4614031 C0.927517683,44.9497336 0,41.4386321 0,38.2467733 C0,5.04780622 36.7887841,-3.57117823 48.8459638,17.8169456 C61.211766,-3.57117823 98,5.04780622 98,38.2467733 C98,41.4386321 96.7633098,44.9497336 94.9082744,48.4614031 L72.340878,48.4614031 Z M6.18345122,53.8885288 L22.5679466,53.8885288 L28.4416751,63.1454305 C29.6783653,65.0608866 32.4609184,64.741644 33.0792635,62.5069452 L42.0441675,34.0966184 L52.864657,73.3600604 C53.4830021,75.9140018 57.1925227,75.9140018 57.8108679,73.3600604 L65.2304592,46.545947 L68.6308072,52.2917473 C68.9399798,53.2500434 69.8674975,53.8885288 70.7950152,53.8885288 L91.8170989,53.8885288 C78.5237791,72.4023323 48.8459638,91.875 48.8459638,91.875 C48.8459638,91.875 19.4767711,72.4023323 6.18345122,53.8885288 L6.18345122,53.8885288 Z" id="path-5"></path>
        <path d="M71.3719241,53.6600795 C76.1165645,55.1762729 80,60.4888183 80,65.4663288 L80,80.9825039 C80,82.8561391 78.4806038,84.375 76.6027285,84.375 L24.5083826,84.375 C22.6326443,84.375 21.1111111,82.8561391 21.1111111,80.9825039 L21.1111111,65.4663288 C21.1111111,60.4920193 24.9940124,55.1794739 29.7402556,53.6632805 L36.5481547,51.4866199 C37.3762363,52.6805823 38.2807151,53.820128 39.2663993,54.890853 L40.6025491,56.3616993 L40.6265901,56.3873071 C42.9104926,58.8707273 46.15123,60.2956931 49.5153782,60.2956931 L51.5845137,60.2956931 C54.9775113,60.2956931 58.2278651,58.8643254 60.4893292,56.3830391 L61.8586022,54.890853 C62.8480261,53.8099916 63.7541076,52.6752473 64.5784495,51.4887539 L71.3719241,53.6600795 Z M67.9299329,34.6263527 C67.8389647,33.9092376 67.7869829,33.1792209 67.7869829,32.450817 C67.7777778,32.3707194 67.7777778,32.2997605 67.7777778,32.2191254 L67.7777778,29.0722052 C67.7777778,28.0820058 67.9196448,27.1090086 68.1844271,26.1989069 C69.4379467,21.8171941 73.506606,18.5982399 78.3382066,18.5982399 C83.1584362,18.5982399 87.2254711,21.8171941 88.4789907,26.1989069 C88.7443145,27.0896562 88.8888889,28.0416883 88.8888889,29.0130728 L88.8888889,32.4524297 C88.8775179,33.1808336 88.8369071,33.9092376 88.7443145,34.6263527 C88.5921594,35.8213652 88.3376652,36.9948751 87.9797488,38.128605 C87.1139268,40.871812 85.6573533,43.4010671 83.6890838,45.5368228 L82.6803119,46.6302351 C81.7635911,47.6317234 80.4586311,48.1977819 79.0924843,48.1977819 L77.5638943,48.1977819 C76.2080355,48.1977819 74.9009097,47.6225847 73.9847303,46.6302351 L72.986788,45.5368228 C71.5903184,44.0284084 70.4483431,42.3076548 69.6030972,40.4766998 C68.7464804,38.6349936 68.1757635,36.6605081 67.9299329,34.6263527 Z M11.2632662,34.6263527 C11.1706736,33.9092376 11.1203162,33.1792209 11.1203162,32.450817 C11.1111111,32.3707194 11.1111111,32.2997605 11.1111111,32.2191254 L11.1111111,29.0722052 C11.1111111,28.0820058 11.2529781,27.1090086 11.5177605,26.1989069 C12.7707386,21.8171941 16.8399394,18.5982399 21.67154,18.5982399 C26.4917695,18.5982399 30.5588044,21.8171941 31.812324,26.1989069 C32.0776478,27.0896562 32.2222222,28.0416883 32.2222222,29.0130728 L32.2222222,32.4524297 C32.2108512,33.1808336 32.1702404,33.9092376 32.0776478,34.6263527 C31.9254927,35.8213652 31.6709985,36.9948751 31.3130821,38.128605 C30.4472601,40.871812 28.9906866,43.4010671 27.0224172,45.5368228 L26.0136452,46.6302351 C25.0969244,47.6317234 23.791423,48.1977819 22.4258176,48.1977819 L20.8972276,48.1977819 C19.5413689,48.1977819 18.234243,47.6225847 17.3175222,46.6302351 L16.3201213,45.5368228 C14.9236517,44.0284084 13.7816764,42.3076548 12.9364306,40.4766998 C12.0798137,38.6349936 11.5090968,36.6605081 11.2632662,34.6263527 Z M93.5035892,48.76658 C97.0757997,49.9297019 100,54.0022867 100,57.8167071 L100,69.7149348 C100,71.1516999 98.8551095,72.3159273 97.4416645,72.3159273 L81.4713666,72.3159273 L81.4713666,65.7462791 C81.4713666,61.2286786 79.0826445,56.6497156 75.5555556,53.7159288 C76.0453686,53.7999566 76.5427925,53.8546852 77.0451092,53.8546852 L78.6031605,53.8546852 C81.1576905,53.8546852 83.605125,52.7567955 85.3077826,50.8551134 L86.3385102,49.7107873 C87.083287,48.8826711 87.7660897,48.0114354 88.3874619,47.1015026 L93.5035892,48.76658 Z M18.527792,65.7469992 L18.5256177,65.7469992 L18.5256177,72.3159273 L2.5574506,72.3159273 C1.14473772,72.3159273 0,71.1518275 0,69.7152199 L0,57.8182964 C0,54.0042941 2.9232666,49.9321556 6.49717472,48.7691613 L11.6224036,47.1015026 C12.2464106,48.0174159 12.9258609,48.8902144 13.6694512,49.7116068 L14.6755811,50.8392249 L14.6935185,50.8607823 C16.4138865,52.7644669 18.852841,53.8567088 21.3858314,53.8567088 L22.9436748,53.8567088 C23.4508165,53.8567088 23.9519789,53.8025389 24.4444444,53.7179675 C20.9172825,56.6497745 18.527792,61.2298939 18.527792,65.7469992 Z M37.0595165,34.0081783 C36.9427469,33.0453566 36.8769033,32.0665234 36.8794753,31.0876902 C36.8661008,30.9793461 36.8661008,30.8848785 36.8661008,30.7765344 L36.8661008,26.5537818 C36.8661008,25.225899 37.048714,23.9198986 37.3877058,22.6987588 C38.9972737,16.8188213 44.2210391,12.5 50.4231996,12.5 C56.6125,12.5 61.8362654,16.8188213 63.4442901,22.6987588 C63.7858539,23.8926791 63.9700103,25.169859 63.9700103,26.4726571 L63.9700103,31.0876902 C63.9566358,32.0665234 63.9046811,33.0437555 63.7858539,34.0065772 C63.5903807,35.6109243 63.2637346,37.1848497 62.803858,38.706471 C61.6917181,42.3864355 59.8203189,45.7808625 57.2956276,48.646378 L55.9998457,50.1135604 C54.8208333,51.4558534 53.146965,52.2158635 51.3928498,52.2158635 L49.4293724,52.2158635 C47.6891461,52.2158635 46.011677,51.4446454 44.8347222,50.1135604 L43.5533436,48.646378 C41.7591049,46.6235984 40.2940844,44.3152813 39.2076646,41.8580577 C38.107356,39.3864238 37.3748457,36.7375966 37.0595165,34.0081783 Z" id="path-7"></path>
        <path d="M42.0703067,56.2864417 L47.9296933,56.2864417 C48.5580368,56.2864417 49.0803681,55.7723926 49.0803681,55.1357669 L49.0803681,53.658773 L40.9196319,53.658773 L40.9196319,55.1357669 C40.9196319,55.7723926 41.4419632,56.2864417 42.0703067,56.2864417 L42.0703067,56.2864417 Z M51.7003067,34.5539264 L51.7003067,47.0070552 C51.7003067,48.24 50.6965031,49.2432515 49.4641104,49.2432515 L40.5358896,49.2432515 C39.3034969,49.2432515 38.3079755,48.24 38.3079755,47.0070552 L38.3079755,34.5539264 C31.7219632,31.901411 27.0784049,25.4539877 27.0784049,17.9215951 C27.0784049,8.02214724 35.1005521,0 45,0 C54.8994479,0 62.9298773,8.02214724 62.9298773,17.9215951 C62.9298773,25.4539877 58.2780368,31.901411 51.7003067,34.5539264 L51.7003067,34.5539264 Z M43.2292638,44.4942331 L46.7712883,44.4942331 L46.7712883,29.028589 L43.2292638,29.028589 L43.2292638,44.4942331 Z M37.0921472,20.8187117 C36.3169325,20.8678528 35.6477301,20.279816 35.598589,19.5128834 C35.5494479,18.7376687 36.1292025,18.0684663 36.9044172,18.0110429 C37.2715951,17.9867485 37.6547853,18.0193252 38.0385276,18.1336196 C38.3896933,18.2313497 38.7403067,18.3865031 39.0754601,18.6233742 C39.5972393,18.9905521 40.0544172,19.26 40.4215951,19.3168712 C40.6336196,19.35 40.8544785,19.2842945 41.0990798,19.0557055 C42.4617791,17.8398773 43.6858896,17.227546 45,17.227546 C46.3141104,17.227546 47.5459509,17.8398773 48.9009202,19.0557055 C49.1455215,19.2842945 49.3746626,19.35 49.5784049,19.3168712 C49.9455828,19.26 50.4027607,18.9905521 50.925092,18.6233742 C51.251411,18.3865031 51.6025767,18.2313497 51.9614724,18.1336196 C52.3452147,18.0193252 52.7284049,17.9867485 53.0955828,18.0110429 C53.8713497,18.0684663 54.4505521,18.7376687 54.401411,19.5128834 C54.3528221,20.279816 53.6836196,20.8678528 52.9078528,20.8187117 C52.8349693,20.8104294 52.7692638,20.8187117 52.7041104,20.8347239 C52.6549693,20.8512883 52.5980982,20.8755828 52.5406748,20.9164417 C51.7168712,21.5039264 50.9007975,21.945092 50.0190184,22.083681 C48.9743558,22.2548466 47.9871166,22.0102454 47.0158896,21.1450307 C46.199816,20.4101227 45.554908,20.0352147 45,20.0352147 C44.445092,20.0352147 43.800184,20.4101227 42.9841104,21.1450307 C42.0211656,22.0102454 41.0256442,22.2548466 39.9809816,22.083681 C39.1080368,21.945092 38.283681,21.5039264 37.4593252,20.9164417 L37.4676074,20.9164417 L37.4593252,20.9164417 C37.410184,20.8755828 37.3533129,20.8512883 37.2964417,20.8347239 C37.2307362,20.8187117 37.1655828,20.8104294 37.0921472,20.8187117 L37.0921472,20.8187117 Z M40.9196319,52.6632515 L49.0803681,52.6632515 C50.598773,52.6632515 50.598773,50.3619018 49.0803681,50.3619018 L40.9196319,50.3619018 C39.4017791,50.3619018 39.4017791,52.6632515 40.9196319,52.6632515 L40.9196319,52.6632515 Z M16.4197546,56.572454 L36.8226994,56.572454 C36.9778528,57.1511043 37.2307362,57.69 37.5570552,58.1797546 L37.5570552,59.1426994 L16.4197546,59.1426994 L16.4197546,56.572454 Z M16.4197546,49.7087117 L34.5947853,49.7087117 C34.8316564,50.2310429 35.133681,50.7125153 35.4925767,51.1448466 C35.4677301,51.5203067 35.4760123,51.8957669 35.5334356,52.2795092 L16.4197546,52.2795092 L16.4197546,49.7087117 Z M16.4197546,45.4157669 L34.0150307,45.4157669 L34.0150307,42.8449693 L16.4197546,42.8449693 L16.4197546,45.4157669 Z M16.4197546,35.9823313 L32.0488344,35.9823313 C32.6766258,36.4306748 33.329816,36.8552761 34.0155828,37.2384663 L34.0155828,38.5442945 L16.4197546,38.5442945 L16.4197546,35.9823313 Z M16.4197546,66.0058896 L37.5570552,66.0058896 L37.5570552,63.4356442 L16.4197546,63.4356442 L16.4197546,66.0058896 Z M73.5885276,56.572454 L53.1773006,56.572454 C53.0221472,57.1511043 52.7692638,57.69 52.4429448,58.1797546 L52.4429448,59.1426994 L73.5885276,59.1426994 L73.5885276,56.572454 Z M73.5885276,49.7087117 L55.4052147,49.7087117 C55.1688957,50.2310429 54.8668712,50.7125153 54.5074233,51.1448466 C54.5322699,51.528589 54.5239877,51.9040491 54.4671166,52.2795092 L73.5885276,52.2795092 L73.5885276,49.7087117 Z M55.9932515,45.4157669 L73.5885276,45.4157669 L73.5885276,42.8449693 L55.9932515,42.8449693 L55.9932515,45.4157669 Z M73.5885276,35.9823313 L57.9517178,35.9823313 C57.3233742,36.4306748 56.670184,36.8552761 55.9926994,37.2384663 L55.9926994,38.5442945 L73.5885276,38.5442945 L73.5885276,35.9823313 Z M52.4434969,66.0058896 L73.5885276,66.0058896 L73.5885276,63.4356442 L52.4434969,63.4356442 L52.4434969,66.0058896 Z M0,33.753865 L3.86834356,33.753865 L3.86834356,82.8502454 L39.4586503,82.8502454 C40.0869939,82.8502454 40.6176074,82.8993865 41.0582209,82.9816564 C40.8053374,82.4427607 40.4707362,81.9530061 40.0626994,81.5289571 C39.1892025,80.6311656 37.9982209,80.0757055 36.7001227,80.0757055 L8.14472393,80.0757055 L6.41484663,80.0757055 L6.41484663,78.3541104 L6.41484663,28.8739877 L6.41484663,27.1435583 L8.14472393,27.1435583 L24.7853374,27.1435583 C25.3402454,28.3593865 25.9928834,29.5100613 26.7520859,30.5955828 L9.86687117,30.5955828 L9.86687117,76.623681 L36.7001227,76.623681 C38.5039877,76.623681 40.1769939,77.2354601 41.5479755,78.2641104 L41.5479755,60.5545399 C41.7191411,60.5711043 41.898589,60.5788344 42.0703067,60.5788344 L47.9296933,60.5788344 C48.101411,60.5788344 48.2808589,60.5711043 48.4520245,60.5545399 L48.4520245,78.2641104 C49.8235583,77.2354601 51.4960123,76.623681 53.2998773,76.623681 L80.133681,76.623681 L80.133681,30.5955828 L63.2479141,30.5955828 C64.0071166,29.5100613 64.6603067,28.3593865 65.2146626,27.1435583 L81.8552761,27.1435583 L83.5851534,27.1435583 L83.5851534,28.8739877 L83.5851534,78.3541104 L83.5851534,80.0757055 L81.8552761,80.0757055 L53.2998773,80.0757055 C52.0023313,80.0757055 50.8107975,80.6311656 49.9378528,81.5289571 C49.5292638,81.9530061 49.1946626,82.4427607 48.9417791,82.9816564 C49.3823926,82.8993865 49.9130061,82.8502454 50.5413497,82.8502454 L86.1316564,82.8502454 L86.1316564,33.753865 L90,33.753865 L90,90 L49.6844172,90 C47.2119018,90 45,87.3717791 45,85.1195706 C45,87.3717791 42.7886503,90 40.3155828,90 L0,90 L0,33.753865 Z" id="path-9"></path>
        <path d="M126.581964,128 L4,5.22286635 L9.41803627,0 L132,122.778377 L126.581964,128 Z M92.74882,62.5806452 L112.93552,62.5806452 L102.84217,46.9247312 L92.74882,62.5806452 Z M108.148748,44.3101935 C110.849981,49.1550968 119.406618,63.047914 119.874697,64.3870968 C120.505532,66.1935484 118.613029,68 117.35136,68 L87.0713108,68 C85.8096421,68 84.7839054,66.020129 85.8096421,64.3870968 C87.7021451,61.3763441 94.81291,49.1936344 97.5242361,44.3306667 C98.0818937,43.3323011 99.1681905,42.7096774 100.354159,42.7096774 C102.015777,43.1552688 103.681179,43.1516559 105.352891,42.7096774 C106.524981,42.7096774 107.598661,43.323871 108.148748,44.3101935 Z M102.211335,24.344086 C97.863625,24.344086 94.3259059,27.7209462 94.3259059,31.8709677 C94.3259059,36.0209892 97.863625,39.3978495 102.211335,39.3978495 C106.559046,39.3978495 110.096765,36.0209892 110.096765,31.8709677 C110.096765,27.7209462 106.559046,24.344086 102.211335,24.344086 Z M102.211335,41.2043011 C96.820225,41.2043011 92.4334028,37.0169462 92.4334028,31.8709677 C92.4334028,26.7249892 96.820225,22.5376344 102.211335,22.5376344 C107.602446,22.5376344 111.989268,26.7249892 111.989268,31.8709677 C111.989268,37.0169462 107.602446,41.2043011 102.211335,41.2043011 Z M107.25801,31.8709677 C107.25801,34.5312688 104.998362,36.688172 102.211335,36.688172 C99.4243092,36.688172 97.1646605,34.5312688 97.1646605,31.8709677 C97.1646605,29.2106667 99.4243092,27.0537634 102.211335,27.0537634 C104.998362,27.0537634 107.25801,29.2106667 107.25801,31.8709677 Z M75.7162923,18.0215054 C75.7162923,19.6846452 74.304485,21.0322581 72.5621205,21.0322581 C70.819756,21.0322581 69.4079487,19.6846452 69.4079487,18.0215054 C69.4079487,16.3583656 70.819756,15.0107527 72.5621205,15.0107527 C74.304485,15.0107527 75.7162923,16.3583656 75.7162923,18.0215054 Z M72.5621205,13.2043011 C69.7788793,13.2043011 67.5154456,15.3648172 67.5154456,18.0215054 C67.5154456,20.6781935 69.7788793,22.8387097 72.5621205,22.8387097 C75.3453617,22.8387097 77.6087954,20.6781935 77.6087954,18.0215054 C77.6087954,15.3648172 75.3453617,13.2043011 72.5621205,13.2043011 Z M72.5621205,24.0430108 C69.0836998,24.0430108 66.2537769,21.3417634 66.2537769,18.0215054 C66.2537769,14.7012473 69.0836998,12 72.5621205,12 C76.0405412,12 78.8704641,14.7012473 78.8704641,18.0215054 C78.8704641,21.3417634 76.0405412,24.0430108 72.5621205,24.0430108 Z M78.8704641,24.0430108 C81.3761382,22.5966452 82.6378069,20.5890753 82.6554703,18.0215054 L94.0104887,22.8387097 C91.2852843,24.7607742 90.0236156,27.5704086 90.2254826,31.2688172 L78.8704641,24.0430108 Z M63.8092938,20.7481634 C64.3278396,22.6413247 65.4898365,24.0226581 67.2713127,24.9114323 L61.8385672,28.2581849 C63.6717719,30.8594753 62.6712686,36.1282925 60.8330173,38.1960774 C58.8938324,40.3770667 53.8572509,41.7860989 53.0775396,40.8395183 C52.5955822,40.254228 57.9551509,33.7449806 55.4318135,30.1320774 C52.908476,26.5191742 44.491884,30.9919484 44.1739435,30.6667871 C43.2819437,29.7527226 46.0147181,24.4489806 47.9589496,23.4409806 C50.4381287,22.1547871 55.4318135,22.0030452 58.6843954,25.2474323 L63.8092938,20.7481634 Z M43.8641143,76 L44.4138491,82.5198578 L43.2455062,82.5198578 L43.8641143,76 Z M-0.432738127,126.404392 L35.2712212,76.6633769 C35.4665712,76.3853367 35.8560188,76.3118459 36.1415303,76.502922 C36.4270417,76.6927732 36.5021763,77.0724756 36.3068264,77.3529654 L0.602867035,127.092756 L-0.432738127,126.404392 Z M86.7344113,127.988976 C86.5340524,127.988976 86.336198,127.894663 86.2147304,127.71706 L51.396107,76.9900434 C51.2032615,76.7107784 51.2796484,76.3298512 51.5664121,76.1412248 C51.8519235,75.9525984 52.2438757,76.0248644 52.4354689,76.3090288 L87.2540923,127.036046 C87.4469377,127.315311 87.3705509,127.696238 87.0825349,127.884864 C86.9760943,127.955906 86.8558789,127.988976 86.7344113,127.988976 Z M46.4267049,91.8942204 L47.5624895,98.5561604 C47.5975523,98.7656091 47.4322562,98.9566852 47.2156182,98.9566852 L40.5311437,98.9566852 C40.3145056,98.9566852 40.1492095,98.7656091 40.1842724,98.5561604 L41.320057,91.8942204 C41.3476063,91.7276413 41.495371,91.6076063 41.6656761,91.6076063 L46.0810858,91.6076063 C46.2513909,91.6076063 46.3991556,91.7276413 46.4267049,91.8942204 Z M39.4469515,107.530243 L48.299059,107.530243 C48.633408,107.530243 48.9164149,107.770313 48.9652524,108.093672 L50.0246502,115.354562 C50.0822534,115.750188 49.7691926,116.104168 49.3609613,116.104168 L38.3863015,116.104168 C37.9780702,116.104168 37.6637572,115.750188 37.7213603,115.354562 L38.7820104,108.093672 C38.8295956,107.770313 39.1126026,107.530243 39.4469515,107.530243 Z M92.3976814,127.976973 L55.7090832,77.6410493 C55.4761659,77.3397371 55.6965607,76.9085911 56.0809994,76.9085911 L68.7248994,76.9085911 C68.8488715,76.9085911 68.9665824,76.9563601 69.0554917,77.0433242 L120,127.976973 L92.3976814,127.976973 Z M-4.86642403,128 L-16,128 L-16,76.8963427 L31.2521465,76.4847942 C31.9170877,76.47867 32.3077876,77.2160276 31.9170877,77.7439364 L-4.86642403,128 Z" id="path-11"></path>
        <path d="M45.1647051,99.1029434 C44.2880971,98.8900183 43.2361211,98.8987186 42.0147145,99.1215359 C42.6994502,101.471751 44.254232,102.614624 46.4843572,102.819701 C45.7955406,101.703813 45.3307106,100.450397 45.1647051,99.1029434 Z M54.9797658,97.2472975 C54.5638722,98.1678467 53.8955375,99.5721946 53.0058454,101.200898 C53.0201817,101.515563 53.057313,101.848043 53.1194302,102.19868 C53.2741061,103.078196 54.1101645,103.797526 55.3354399,104.726409 C53.880728,104.248222 52.8076667,103.606725 52.0575638,102.870996 C51.6211987,103.610266 51.1470771,104.374401 50.6375495,105.143782 C52.75731,106.902973 55.8014249,107.315999 58.1600435,106.596263 L56.0198553,96.871206 C55.6548362,96.9513468 55.3044037,97.0761299 54.9797658,97.2472975 Z M49.8971696,106.228241 C45.7327037,112.141857 39.5448739,117.821925 32.3985266,114.380597 C20.8170453,108.80428 31.2096454,88.7355818 33.2507602,85.0381861 C33.4489071,84.6795286 33.8452008,84.4760208 34.2546369,84.5233716 C39.603069,85.140162 44.4699656,86.8341079 48.5853482,89.5758902 C50.0721458,87.7922669 51.8204368,86.2550963 53.3843,84.8944649 L52.9202724,82.7888636 C51.8628152,77.9842642 52.2742732,75.4766844 53.3792452,72.9791792 C56.6698983,65.5360296 61.8763079,71.4357432 60.2820345,79.002811 C59.5076442,82.6740126 57.5039348,85.6198396 55.1251616,88.3480541 L56.2827031,93.4911617 C58.4400775,93.1073177 60.877486,93.797431 62.957017,96.3312049 C65.6148133,99.5691966 63.5585342,105.728836 59.4075599,107.381078 L60.3275274,111.470378 C61.6063833,116.638672 58.8606341,119.806141 54.5620606,119.672148 C51.5544745,119.578454 49.83181,117.141397 49.5628964,115.405535 C49.5588526,115.386393 49.5578417,115.368259 49.5537978,115.34811 C49.5386335,115.237289 49.5305459,115.130497 49.5275131,115.026728 C49.5224583,114.946131 49.5052721,114.868556 49.507294,114.786952 C49.5386335,113.151836 50.9185848,111.850192 52.5876688,111.881423 C54.2567527,111.91064 55.5831234,113.26165 55.5517839,114.896765 C55.5204443,116.531881 54.141504,117.832518 52.4714091,117.803301 C52.3339195,117.800279 52.2014846,117.775092 52.0690497,117.75595 C52.9586886,119.285282 56.4666967,118.839983 57.4624857,118.18916 C59.4833814,116.870389 59.7907112,114.001129 59.3307274,111.915677 L58.4046942,107.706489 C55.4592629,108.432382 52.3618743,107.787643 49.8971696,106.228241 Z M51.7165168,91.996142 C52.5299877,92.7225608 53.303534,93.4993938 54.0342744,94.326328 C54.4434002,94.0889266 54.8777196,93.8901278 55.3303851,93.7379906 L54.3386399,89.2316007 C53.4868224,90.1655877 52.6009329,91.0801721 51.7165168,91.996142 Z M121.986682,127 L7.10542736e-15,4.97788337 L5.01331752,-1.42108547e-14 L127,122.022117 L121.986682,127 Z M31.2147002,101.517287 C31.5847091,109.773461 35.0239723,111.101299 42.6799218,107.118791 C36.4019017,108.454689 33.4640714,106.569723 31.2147002,101.517287 Z M38.7594449,98.163437 C38.2236396,94.9949603 36.1016486,93.8293236 32.5461257,94.4781309 C33.3973484,97.3997787 35.593139,98.4545943 38.7594449,98.163437 Z M15.7545955,85.4105451 C19.143311,85.3853584 21.0449142,84.0071467 21.3027073,81.1348646 C18.1131496,80.6462442 16.2438969,82.0375531 15.7545955,85.4105451 Z M32.3999419,77.9331416 C29.841219,75.9736227 27.5301797,76.2970189 25.4708678,79.0161662 C28.4531801,80.6210576 30.7854494,80.3268779 32.3999419,77.9331416 Z M25.9793773,94.031421 C25.5396127,95.3411252 25.1908338,96.5964263 24.8966463,97.8154586 C14.9549314,97.1676588 9.56655018,79.4755702 8.56065163,75.8235104 C8.45045772,75.4255618 8.59502404,74.9963819 8.92661673,74.7354485 C15.8455813,69.2880865 23.8149263,66.6817752 31.9460238,67.6237547 C32.3180547,67.6670757 32.6314502,67.9118897 32.7638851,68.259465 C33.4402129,70.0295806 35.4691962,75.7459356 35.9847824,81.710127 C35.5278315,81.6426269 35.0688587,81.5741193 34.6028092,81.5217311 C34.4471224,81.5025893 34.2914356,81.4935221 34.1377706,81.4935221 C32.6617788,81.4935221 31.3030575,82.2944566 30.5923574,83.583004 C30.2294251,84.2408785 29.6289188,85.3672241 28.9354049,86.8149509 C25.0280703,85.4458063 22.8161044,87.9946922 21.4270545,94.4162725 C23.3498878,90.7632053 25.4213311,89.0394331 28.0771055,88.6717085 C27.3704491,90.2624953 26.6314422,92.087014 25.9793773,94.031421 Z M59.1416791,106.199322 C60.1394901,105.706672 60.942187,104.978275 61.3667874,104.020176 C63.389705,99.4583755 60.0576028,96.7452729 57.0176662,96.7623192 L59.1416791,106.199322 Z M53.9110067,82.9510654 L54.1900298,84.1902471 C55.5679591,82.9833043 56.719435,81.9174066 57.2875907,80.9381508 C59.8877627,76.4559401 58.9748718,73.9533977 58.5967753,73.4184339 C57.9356118,72.4814917 55.2161474,73.6884344 54.1283616,76.6171345 C53.7209474,77.7142636 53.1467259,79.5559092 53.9110067,82.9510654 Z M84.8923283,21.833071 C96.1482826,21.833071 106.377108,26.3031922 113.884448,33.5549235 C115.043,34.6742168 115.089504,36.5178773 114.016883,37.7197828 C112.882593,38.9871735 110.906179,39.0939647 109.683937,37.9122086 C103.267416,31.7052182 94.5196368,27.8778596 84.8923283,27.8778596 C75.4621557,27.8778596 66.8751182,31.5500686 60.4970137,37.5344093 C59.2656726,38.6899714 57.307456,38.5670607 56.1883307,37.3026924 L56.1873197,37.3016849 C55.1116654,36.0886974 55.1743445,34.2299249 56.3571599,33.1196987 C63.8200173,26.1248709 73.8628276,21.833071 84.8923283,21.833071 Z M84.8923283,33.8695547 C93.106324,33.8695547 100.548962,37.2203825 105.917125,42.6224086 C107.02614,43.737672 107.028162,45.539019 105.978793,46.711708 L105.976771,46.7147304 C104.806087,48.0244346 102.786202,48.0496212 101.54374,46.8074172 C97.2795393,42.5508786 91.3897253,39.9143433 84.8923283,39.9143433 C78.5678043,39.9143433 72.8195237,42.4128559 68.5856512,46.4719314 C67.3300472,47.6748443 65.3364473,47.6285009 64.1839605,46.3268565 C63.0941528,45.0977495 63.2053577,43.2460292 64.3912059,42.109609 C69.7138751,37.0088149 76.9421914,33.8695547 84.8923283,33.8695547 Z M84.8923283,46.1396695 C90.0037083,46.1396695 94.6025349,48.3611293 97.7708627,51.8862485 C98.7969803,53.0277061 98.7848488,54.7625604 97.7617641,55.9060329 C96.5668172,57.2449536 94.4620124,57.2640954 93.2630218,55.9271896 C91.2067427,53.6321849 88.2163428,52.1844581 84.8923283,52.1844581 C81.7098472,52.1844581 78.8316631,53.5112892 76.7865046,55.6400622 C75.5662839,56.9104753 73.5140487,56.8570796 72.3463976,55.5383083 L72.3453866,55.5373008 C71.3121923,54.3716641 71.3182581,52.5975186 72.3979562,51.473188 C75.5470758,48.1888528 79.9851609,46.1396695 84.8923283,46.1396695 Z M89.1829153,63.3688281 C89.1829153,65.7303255 87.262104,67.6445085 84.8924294,67.6445085 C82.5227548,67.6445085 80.6019435,65.7303255 80.6019435,63.3688281 C80.6019435,61.0073307 82.5227548,59.0931477 84.8924294,59.0931477 C87.262104,59.0931477 89.1829153,61.0073307 89.1829153,63.3688281 Z" id="path-13"></path>
    </defs>
    <g id="sprite-academics" stroke="none" stroke-width="1" fill="none" fill-rule="evenodd">
        <g id="Stem-Icon" transform="translate(11.000000, 531.000000)">
            <mask id="mask-2" fill="white">
                <use xlink:href="#path-1"></use>
            </mask>
            <g id="Fill-1"></g>
            <g id="UI/Color/Flat/White" mask="url(#mask-2)" fill="#FFFFFF" fill-rule="evenodd">
                <rect id="Base" x="0" y="0" width="108" height="108"></rect>
            </g>
        </g>
        <g id="Business" transform="translate(21.000000, 23.000000)">
            <mask id="mask-4" fill="white">
                <use xlink:href="#path-3"></use>
            </mask>
            <g id="Combined-Shape"></g>
            <g id="UI/Color/Flat/White" mask="url(#mask-4)" fill="#FFFFFF" fill-rule="evenodd">
                <rect id="Base" x="0" y="0" width="88" height="88"></rect>
            </g>
        </g>
        <g id="Health" transform="translate(16.000000, 410.000000)">
            <mask id="mask-6" fill="white">
                <use xlink:href="#path-5"></use>
            </mask>
            <g id="Fill-1"></g>
            <g id="UI/Color/Flat/White" mask="url(#mask-6)" fill="#FFFFFF" fill-rule="evenodd">
                <rect id="Base" x="0" y="0" width="98" height="98"></rect>
            </g>
        </g>
        <g id="Social" transform="translate(15.000000, 662.000000)">
            <mask id="mask-8" fill="white">
                <use xlink:href="#path-7"></use>
            </mask>
            <g id="Combined-Shape"></g>
            <g id="UI/Color/Flat/White" mask="url(#mask-8)" fill="#FFFFFF" fill-rule="evenodd">
                <rect id="Base" x="0" y="0" width="100" height="100"></rect>
            </g>
        </g>
        <g id="General" transform="translate(20.000000, 796.000000)">
            <mask id="mask-10" fill="white">
                <use xlink:href="#path-9"></use>
            </mask>
            <g id="Fill-1"></g>
            <g id="UI/Color/Flat/White" mask="url(#mask-10)" fill="#FFFFFF" fill-rule="evenodd">
                <rect id="Base" x="0" y="0" width="90" height="90"></rect>
            </g>
        </g>
        <g id="Engineering" transform="translate(1.000000, 131.000000)">
            <mask id="mask-12" fill="white">
                <use xlink:href="#path-11"></use>
            </mask>
            <g id="Mask"></g>
            <g id="UI/Color/Flat/White" mask="url(#mask-12)" fill="#FFFFFF" fill-rule="evenodd">
                <rect id="Base" x="0" y="0" width="128" height="128"></rect>
            </g>
        </g>
        <g id="Communications" transform="translate(4.000000, 262.000000)">
            <mask id="mask-14" fill="white">
                <use xlink:href="#path-13"></use>
            </mask>
            <g id="Fill-16"></g>
            <g id="UI/Color/Flat/White" mask="url(#mask-14)" fill="#FFFFFF" fill-rule="evenodd">
                <rect id="Base" x="0" y="0" width="127" height="127"></rect>
            </g>
        </g>
    </g>
</svg>